<svg width="20" height="28" viewBox="0 0 20 28" fill="none" xmlns="http://www.w3.org/2000/svg">
  <g clip-path="url(#clip0_1472_19311)">
    <path
      d="M0 1.4C0 0.626802 0.596954 0 1.33333 0H14L20 6V26.6C20 27.3732 19.403 28 18.6667 28H1.33333C0.596954 28 0 27.3732 0 26.6V1.4Z"
      fill="white" />
    <path
      d="M3 9.5C3 8.94772 3.44772 8.5 4 8.5H16C16.5523 8.5 17 8.94772 17 9.5V16.5C17 17.0523 16.5523 17.5 16 17.5H4C3.44772 17.5 3 17.0523 3 16.5V9.5Z"
      fill="#333333" />
    <path
      d="M10.9683 11.0031C11.1244 10.8626 11.3433 10.8628 11.4995 11.0031L15.0005 15.7004H4.99951L6.71826 13.3742C6.87448 13.2336 7.09327 13.2337 7.24951 13.3742L7.99951 14.3498L10.9683 11.0031Z"
      fill="white" />
    <path
      d="M6.00049 10.3C6.55255 10.3003 7.00049 10.7479 7.00049 11.3C7.00049 11.8521 6.55255 12.2997 6.00049 12.3C5.4482 12.3 4.99951 11.8523 4.99951 11.3C4.99951 10.7477 5.4482 10.3 6.00049 10.3Z"
      fill="white" />
    <path
      d="M0 26.5996V1.40039C0 0.627306 0.596778 0.000184711 1.33301 0H14L20 6V26.5996C20 27.3246 19.4752 27.9216 18.8027 27.9932L18.667 28V27.2998C18.9849 27.2996 19.2998 27.0186 19.2998 26.5996V6.29004L13.71 0.700195H1.33301C1.01513 0.700387 0.700195 0.981358 0.700195 1.40039V26.5996C0.700195 27.0186 1.01513 27.2996 1.33301 27.2998V28C0.596778 27.9998 0 27.3727 0 26.5996ZM18.667 27.2998V28H1.33301V27.2998H18.667Z"
      fill="#333333" />
    <path d="M14 0L20 6H15C14.4477 6 14 5.55228 14 5V0Z" fill="#333333" />
    <path
      d="M15.6843 23.6387V25.4033C15.6187 25.4901 15.5161 25.5853 15.3765 25.689C15.2389 25.7905 15.0559 25.8783 14.8274 25.9524C14.5989 26.0264 14.3143 26.0635 13.9736 26.0635C13.6838 26.0635 13.4182 26.0148 13.177 25.9175C12.9358 25.818 12.7274 25.6731 12.5518 25.4827C12.3783 25.2922 12.2439 25.0605 12.1487 24.7876C12.0535 24.5125 12.0059 24.1994 12.0059 23.8481V23.5276C12.0059 23.1785 12.0492 22.8674 12.136 22.5945C12.2249 22.3194 12.3518 22.0867 12.5168 21.8962C12.6819 21.7058 12.8808 21.5619 13.1135 21.4646C13.3484 21.3652 13.6139 21.3154 13.9102 21.3154C14.2889 21.3154 14.6021 21.3789 14.8496 21.5059C15.0993 21.6307 15.2918 21.8042 15.4272 22.0264C15.5627 22.2485 15.6484 22.5024 15.6843 22.7881H14.9036C14.8782 22.6273 14.8285 22.4834 14.7544 22.3564C14.6825 22.2295 14.5788 22.13 14.4434 22.0581C14.3101 21.984 14.1366 21.947 13.9229 21.947C13.7388 21.947 13.5769 21.9819 13.4373 22.0518C13.2976 22.1216 13.1812 22.2242 13.0881 22.3596C12.9972 22.495 12.9284 22.6601 12.8818 22.8547C12.8353 23.0494 12.812 23.2716 12.812 23.5212V23.8481C12.812 24.1021 12.8385 24.3274 12.8914 24.5242C12.9464 24.7209 13.0247 24.887 13.1262 25.0225C13.2299 25.1579 13.3558 25.2605 13.5039 25.3303C13.652 25.398 13.8192 25.4319 14.0054 25.4319C14.1873 25.4319 14.3365 25.4171 14.4529 25.3875C14.5693 25.3557 14.6613 25.3187 14.729 25.2764C14.7988 25.2319 14.8528 25.1896 14.8909 25.1494V24.2322H13.9292V23.6387H15.6843Z"
      fill="#333333" />
    <path
      d="M9.7395 24.2766H8.53662V23.645H9.7395C9.94897 23.645 10.1182 23.6112 10.2473 23.5435C10.3764 23.4757 10.4705 23.3826 10.5298 23.2642C10.5911 23.1436 10.6218 23.006 10.6218 22.8516C10.6218 22.7056 10.5911 22.5691 10.5298 22.4421C10.4705 22.3131 10.3764 22.2094 10.2473 22.1311C10.1182 22.0528 9.94897 22.0137 9.7395 22.0137H8.78101V26H7.98438V21.3789H9.7395C10.0971 21.3789 10.4007 21.4424 10.6504 21.5693C10.9022 21.6942 11.0937 21.8677 11.2249 22.0898C11.356 22.3099 11.4216 22.5617 11.4216 22.8452C11.4216 23.1436 11.356 23.3996 11.2249 23.6133C11.0937 23.827 10.9022 23.991 10.6504 24.1052C10.4007 24.2195 10.0971 24.2766 9.7395 24.2766Z"
      fill="#333333" />
    <path
      d="M6.27393 24.613V21.3789H7.06738V24.613C7.06738 24.9198 7.00179 25.1812 6.87061 25.397C6.73942 25.6128 6.56063 25.7778 6.33423 25.8921C6.10783 26.0063 5.85075 26.0635 5.56299 26.0635C5.26888 26.0635 5.00757 26.0138 4.77905 25.9143C4.55265 25.8149 4.37492 25.6625 4.24585 25.4573C4.11678 25.252 4.05225 24.9918 4.05225 24.6765H4.85205C4.85205 24.8585 4.88062 25.0055 4.93774 25.1177C4.99699 25.2277 5.07951 25.3081 5.1853 25.3589C5.29321 25.4076 5.41911 25.4319 5.56299 25.4319C5.70052 25.4319 5.82218 25.4012 5.92798 25.3398C6.03589 25.2764 6.12052 25.1843 6.18188 25.0637C6.24325 24.941 6.27393 24.7908 6.27393 24.613Z"
      fill="#333333" />
  </g>
  <defs>
    <clipPath id="clip0_1472_19311">
      <rect width="20" height="28" fill="white" />
    </clipPath>
  </defs>
</svg>