<svg width="48" height="67" viewBox="0 0 48 67" fill="none" xmlns="http://www.w3.org/2000/svg">
  <g clip-path="url(#clip0_769_4485)">
    <path
      d="M3.19043 0.5H33.293L47.3574 14.5645V63.6504C47.3572 65.2474 46.1299 66.4998 44.667 66.5H3.19043C1.72737 66.5 0.500197 65.2475 0.5 63.6504V3.34961C0.500188 1.85242 1.57868 0.658213 2.91895 0.514648L3.19043 0.5Z"
      fill="white" stroke="#333333" />
    <rect x="8.97314" y="20" width="29.9107" height="21" rx="1" fill="#333333" />
    <path
      d="M25.9985 25.8408C26.3323 25.513 26.7996 25.5128 27.1333 25.8408L34.6108 36.8008H13.2466L16.9185 31.3721C17.2522 31.0443 17.7195 31.0442 18.0532 31.3721L19.6558 33.6504L25.9985 25.8408ZM15.3823 24.2002C16.5623 24.2002 17.519 25.141 17.519 26.3008C17.5188 27.4604 16.5621 28.4004 15.3823 28.4004C14.2026 28.4003 13.2468 27.4603 13.2466 26.3008C13.2466 25.1411 14.2025 24.2003 15.3823 24.2002Z"
      fill="white" />
    <path d="M33.5 0L40.9777 7.5L48.4554 15H34.5C33.9477 15 33.5 14.5523 33.5 14V0Z" fill="#333333" />
    <path
      d="M15.6064 57.0127V50.0469H17.3154V57.0127C17.3154 57.6735 17.1742 58.2363 16.8916 58.7012C16.609 59.166 16.224 59.5215 15.7363 59.7676C15.2487 60.0137 14.695 60.1367 14.0752 60.1367C13.4417 60.1367 12.8789 60.0296 12.3867 59.8154C11.8991 59.6012 11.5163 59.2731 11.2383 58.8311C10.9603 58.389 10.8213 57.8285 10.8213 57.1494H12.5439C12.5439 57.5413 12.6055 57.8581 12.7285 58.0996C12.8561 58.3366 13.0339 58.5098 13.2617 58.6191C13.4941 58.724 13.7653 58.7764 14.0752 58.7764C14.3714 58.7764 14.6335 58.7103 14.8613 58.5781C15.0938 58.4414 15.276 58.2432 15.4082 57.9834C15.5404 57.7191 15.6064 57.3955 15.6064 57.0127ZM23.0713 56.2881H20.4805V54.9277H23.0713C23.5225 54.9277 23.887 54.8548 24.165 54.709C24.443 54.5632 24.6458 54.3626 24.7734 54.1074C24.9056 53.8477 24.9717 53.5514 24.9717 53.2188C24.9717 52.9043 24.9056 52.6104 24.7734 52.3369C24.6458 52.0589 24.443 51.8356 24.165 51.667C23.887 51.4984 23.5225 51.4141 23.0713 51.4141H21.0068V60H19.291V50.0469H23.0713C23.8415 50.0469 24.4954 50.1836 25.0332 50.457C25.5755 50.7259 25.988 51.0996 26.2705 51.5781C26.5531 52.0521 26.6943 52.5944 26.6943 53.2051C26.6943 53.8477 26.5531 54.3991 26.2705 54.8594C25.988 55.3197 25.5755 55.6729 25.0332 55.9189C24.4954 56.165 23.8415 56.2881 23.0713 56.2881ZM35.875 54.9141V58.7148C35.7337 58.9017 35.5127 59.1068 35.2119 59.3301C34.9157 59.5488 34.5215 59.738 34.0293 59.8975C33.5371 60.057 32.9242 60.1367 32.1904 60.1367C31.5661 60.1367 30.9941 60.0319 30.4746 59.8223C29.9551 59.6081 29.5062 59.2959 29.1279 58.8857C28.7542 58.4756 28.4648 57.9766 28.2598 57.3887C28.0547 56.7962 27.9521 56.1217 27.9521 55.3652V54.6748C27.9521 53.9229 28.0456 53.2529 28.2324 52.665C28.4238 52.0726 28.6973 51.5713 29.0527 51.1611C29.4082 50.751 29.8366 50.4411 30.3379 50.2314C30.8438 50.0173 31.4157 49.9102 32.0537 49.9102C32.8695 49.9102 33.5439 50.0469 34.0771 50.3203C34.6149 50.5892 35.0296 50.9629 35.3213 51.4414C35.613 51.9199 35.7975 52.4668 35.875 53.082H34.1934C34.1387 52.7357 34.0316 52.4258 33.8721 52.1523C33.7171 51.8789 33.4938 51.6647 33.2021 51.5098C32.915 51.3503 32.5413 51.2705 32.0811 51.2705C31.6846 51.2705 31.3359 51.3457 31.0352 51.4961C30.7344 51.6465 30.4837 51.8675 30.2832 52.1592C30.0872 52.4508 29.9391 52.8063 29.8389 53.2256C29.7386 53.6449 29.6885 54.1234 29.6885 54.6611V55.3652C29.6885 55.9121 29.7454 56.3975 29.8594 56.8213C29.9779 57.2451 30.1465 57.6029 30.3652 57.8945C30.5885 58.1862 30.8597 58.4072 31.1787 58.5576C31.4977 58.7035 31.8577 58.7764 32.2588 58.7764C32.6507 58.7764 32.972 58.7445 33.2227 58.6807C33.4733 58.6123 33.6715 58.5326 33.8174 58.4414C33.9678 58.3457 34.084 58.2546 34.166 58.168V56.1924H32.0947V54.9141H35.875Z"
      fill="#333333" />
  </g>
  <defs>
    <clipPath id="clip0_769_4485">
      <rect width="47.8571" height="67" rx="1" fill="white" />
    </clipPath>
  </defs>
</svg>
  