<svg width="48" height="67" viewBox="0 0 48 67" fill="none" xmlns="http://www.w3.org/2000/svg">
  <g clip-path="url(#clip0_781_2205)">
    <path
      d="M3.19043 0.5H33.293L47.3574 14.5645V63.6504C47.3572 65.2474 46.1299 66.4998 44.667 66.5H3.19043C1.72737 66.5 0.500197 65.2475 0.5 63.6504V3.34961C0.500188 1.85242 1.57868 0.658213 2.91895 0.514648L3.19043 0.5Z"
      fill="white" stroke="#1E1ECE" />
    <path
      d="M18.3262 20.9639L18.748 22.168C18.1445 22.373 17.7285 22.7363 17.5 23.2578C17.2773 23.7793 17.166 24.377 17.166 25.0508V26.8613C17.166 27.4473 17.04 27.9805 16.7881 28.4609C16.542 28.9414 16.1494 29.3223 15.6104 29.6035C15.0713 29.8848 14.3652 30.0254 13.4922 30.0254V28.8125C14.0957 28.8125 14.5293 28.6367 14.793 28.2852C15.0566 27.9336 15.1885 27.459 15.1885 26.8613V25.0508C15.1885 24.4355 15.2822 23.8613 15.4697 23.3281C15.6631 22.7891 15.9883 22.3174 16.4453 21.9131C16.9023 21.5029 17.5293 21.1865 18.3262 20.9639ZM18.748 36.9863L18.3262 38.1992C17.5293 37.9707 16.9023 37.6514 16.4453 37.2412C15.9883 36.8369 15.6631 36.3652 15.4697 35.8262C15.2822 35.293 15.1885 34.7188 15.1885 34.1035V32.3105C15.1885 31.9062 15.1299 31.5605 15.0127 31.2734C14.8955 30.9805 14.7109 30.7549 14.459 30.5967C14.2129 30.4326 13.8906 30.3506 13.4922 30.3506V29.1289C14.3652 29.1289 15.0713 29.2725 15.6104 29.5596C16.1494 29.8408 16.542 30.2217 16.7881 30.7021C17.04 31.1768 17.166 31.7129 17.166 32.3105V34.1035C17.166 34.5547 17.2129 34.9707 17.3066 35.3516C17.4062 35.7383 17.5703 36.0723 17.7988 36.3535C18.0332 36.6348 18.3496 36.8457 18.748 36.9863ZM28.2227 22.168L28.6445 20.9639C29.4473 21.1865 30.0771 21.5029 30.5342 21.9131C30.9912 22.3174 31.3135 22.7891 31.501 23.3281C31.6885 23.8613 31.7822 24.4355 31.7822 25.0508V26.8613C31.7822 27.2539 31.8408 27.5967 31.958 27.8896C32.0752 28.1826 32.2598 28.4111 32.5117 28.5752C32.7637 28.7334 33.0889 28.8125 33.4873 28.8125V29.9727C32.6201 29.9727 31.9141 29.8379 31.3691 29.5684C30.8242 29.293 30.4258 28.9209 30.1738 28.4521C29.9277 27.9775 29.8047 27.4473 29.8047 26.8613V25.0508C29.8047 24.5996 29.7578 24.1807 29.6641 23.7939C29.5703 23.4072 29.4062 23.0732 29.1719 22.792C28.9434 22.5107 28.627 22.3027 28.2227 22.168ZM28.6445 38.1992L28.2227 36.9863C28.627 36.8457 28.9434 36.6348 29.1719 36.3535C29.4004 36.0723 29.5615 35.7383 29.6553 35.3516C29.7549 34.9707 29.8047 34.5547 29.8047 34.1035V32.3105C29.8047 31.7129 29.9277 31.1797 30.1738 30.7109C30.4258 30.2422 30.8242 29.873 31.3691 29.6035C31.9141 29.3281 32.6201 29.1904 33.4873 29.1904V30.3506C32.8896 30.3506 32.4561 30.5293 32.1865 30.8867C31.917 31.2383 31.7822 31.7129 31.7822 32.3105V34.1035C31.7822 34.7188 31.6885 35.293 31.501 35.8262C31.3135 36.3652 30.9912 36.8369 30.5342 37.2412C30.0771 37.6514 29.4473 37.9707 28.6445 38.1992Z"
      fill="#1E1ECE" />
    <path d="M33.5 0L40.9777 7.5L48.4554 15H34.5C33.9477 15 33.5 14.5523 33.5 14V0Z" fill="#1E1ECE" />
    <path
      d="M11.1064 57.0127V50.0469H12.8154V57.0127C12.8154 57.6735 12.6742 58.2363 12.3916 58.7012C12.109 59.166 11.724 59.5215 11.2363 59.7676C10.7487 60.0137 10.195 60.1367 9.5752 60.1367C8.94173 60.1367 8.37891 60.0296 7.88672 59.8154C7.39909 59.6012 7.01628 59.2731 6.73828 58.8311C6.46029 58.389 6.32129 57.8285 6.32129 57.1494H8.04395C8.04395 57.5413 8.10547 57.8581 8.22852 58.0996C8.35612 58.3366 8.53385 58.5098 8.76172 58.6191C8.99414 58.724 9.2653 58.7764 9.5752 58.7764C9.87142 58.7764 10.1335 58.7103 10.3613 58.5781C10.5938 58.4414 10.776 58.2432 10.9082 57.9834C11.0404 57.7191 11.1064 57.3955 11.1064 57.0127ZM20.0273 57.4365C20.0273 57.2314 19.9954 57.0492 19.9316 56.8896C19.8724 56.7301 19.7653 56.5843 19.6104 56.4521C19.4554 56.32 19.2367 56.1924 18.9541 56.0693C18.6761 55.9417 18.3206 55.8118 17.8877 55.6797C17.4137 55.5339 16.9762 55.3721 16.5752 55.1943C16.1787 55.012 15.8324 54.8024 15.5361 54.5654C15.2399 54.3239 15.0098 54.0482 14.8457 53.7383C14.6816 53.4238 14.5996 53.0615 14.5996 52.6514C14.5996 52.2458 14.6839 51.8766 14.8525 51.5439C15.0257 51.2113 15.2695 50.9242 15.584 50.6826C15.903 50.4365 16.279 50.2474 16.7119 50.1152C17.1449 49.9785 17.6234 49.9102 18.1475 49.9102C18.8857 49.9102 19.5215 50.0469 20.0547 50.3203C20.5924 50.5938 21.0049 50.9606 21.292 51.4209C21.5837 51.8812 21.7295 52.3893 21.7295 52.9453H20.0273C20.0273 52.6172 19.9567 52.3278 19.8154 52.0771C19.6787 51.8219 19.4691 51.6214 19.1865 51.4756C18.9085 51.3298 18.5553 51.2568 18.127 51.2568C17.7214 51.2568 17.3841 51.3184 17.1152 51.4414C16.8464 51.5645 16.6458 51.7308 16.5137 51.9404C16.3815 52.1501 16.3154 52.387 16.3154 52.6514C16.3154 52.8382 16.3587 53.0091 16.4453 53.1641C16.5319 53.3145 16.6641 53.4557 16.8418 53.5879C17.0195 53.7155 17.2428 53.8363 17.5117 53.9502C17.7806 54.0641 18.0973 54.1735 18.4619 54.2783C19.0133 54.4424 19.4941 54.6247 19.9043 54.8252C20.3145 55.0212 20.6562 55.2445 20.9297 55.4951C21.2031 55.7458 21.4082 56.0306 21.5449 56.3496C21.6816 56.6641 21.75 57.0218 21.75 57.4229C21.75 57.8421 21.6657 58.2204 21.4971 58.5576C21.3285 58.8903 21.0869 59.1751 20.7725 59.4121C20.4626 59.6445 20.0889 59.8245 19.6514 59.9521C19.2184 60.0752 18.7354 60.1367 18.2021 60.1367C17.7236 60.1367 17.252 60.0729 16.7871 59.9453C16.3268 59.8177 15.9076 59.624 15.5293 59.3643C15.151 59.0999 14.8503 58.7718 14.627 58.3799C14.4036 57.9834 14.292 57.5208 14.292 56.9922H16.0078C16.0078 57.3158 16.0625 57.5915 16.1719 57.8193C16.2858 58.0472 16.443 58.234 16.6436 58.3799C16.8441 58.5212 17.0765 58.626 17.3408 58.6943C17.6097 58.7627 17.8968 58.7969 18.2021 58.7969C18.6032 58.7969 18.9382 58.7399 19.207 58.626C19.4805 58.512 19.6855 58.3525 19.8223 58.1475C19.959 57.9424 20.0273 57.7054 20.0273 57.4365ZM31.2041 54.75V55.2969C31.2041 56.0488 31.1061 56.7233 30.9102 57.3203C30.7142 57.9173 30.4339 58.4255 30.0693 58.8447C29.7093 59.264 29.2764 59.5853 28.7705 59.8086C28.2646 60.0273 27.7041 60.1367 27.0889 60.1367C26.4782 60.1367 25.9199 60.0273 25.4141 59.8086C24.9128 59.5853 24.4775 59.264 24.1084 58.8447C23.7393 58.4255 23.4521 57.9173 23.2471 57.3203C23.0465 56.7233 22.9463 56.0488 22.9463 55.2969V54.75C22.9463 53.998 23.0465 53.3258 23.2471 52.7334C23.4476 52.1364 23.7301 51.6283 24.0947 51.209C24.4639 50.7852 24.8991 50.4639 25.4004 50.2451C25.9062 50.0218 26.4645 49.9102 27.0752 49.9102C27.6904 49.9102 28.251 50.0218 28.7568 50.2451C29.2627 50.4639 29.6979 50.7852 30.0625 51.209C30.4271 51.6283 30.7074 52.1364 30.9033 52.7334C31.1038 53.3258 31.2041 53.998 31.2041 54.75ZM29.4883 55.2969V54.7363C29.4883 54.1803 29.4336 53.6904 29.3242 53.2666C29.2194 52.8382 29.0622 52.4805 28.8525 52.1934C28.6475 51.9017 28.3945 51.6829 28.0938 51.5371C27.793 51.3867 27.4535 51.3115 27.0752 51.3115C26.6969 51.3115 26.3597 51.3867 26.0635 51.5371C25.7673 51.6829 25.5143 51.9017 25.3047 52.1934C25.0996 52.4805 24.9424 52.8382 24.833 53.2666C24.7236 53.6904 24.6689 54.1803 24.6689 54.7363V55.2969C24.6689 55.8529 24.7236 56.3451 24.833 56.7734C24.9424 57.2018 25.1019 57.5641 25.3115 57.8604C25.5257 58.152 25.7809 58.373 26.0771 58.5234C26.3734 58.6693 26.7106 58.7422 27.0889 58.7422C27.4717 58.7422 27.8112 58.6693 28.1074 58.5234C28.4036 58.373 28.6543 58.152 28.8594 57.8604C29.0645 57.5641 29.2194 57.2018 29.3242 56.7734C29.4336 56.3451 29.4883 55.8529 29.4883 55.2969ZM40.8154 50.0469V60H39.0996L34.6357 52.8701V60H32.9199V50.0469H34.6357L39.1133 57.1904V50.0469H40.8154Z"
      fill="#333333" />
  </g>
  <defs>
    <clipPath id="clip0_781_2205">
      <rect width="47.8571" height="67" rx="1" fill="white" />
    </clipPath>
  </defs>
</svg>
  