<svg width="20" height="28" viewBox="0 0 20 28" fill="none" xmlns="http://www.w3.org/2000/svg">
  <g clip-path="url(#clip0_1472_19341)">
    <path
      d="M0 1.4C0 0.626802 0.596954 0 1.33333 0H14L20 6V26.6C20 27.3732 19.403 28 18.6667 28H1.33333C0.596954 28 0 27.3732 0 26.6V1.4Z"
      fill="white" />
    <path
      d="M0 26.5996V1.40039C0 0.627306 0.596778 0.000184711 1.33301 0H14L20 6V26.5996C20 27.3246 19.4752 27.9216 18.8027 27.9932L18.667 28V27.2998C18.9849 27.2996 19.2998 27.0186 19.2998 26.5996V6.29004L13.71 0.700195H1.33301C1.01513 0.700387 0.700195 0.981358 0.700195 1.40039V26.5996C0.700195 27.0186 1.01513 27.2996 1.33301 27.2998V28C0.596778 27.9998 0 27.3727 0 26.5996ZM18.667 27.2998V28H1.33301V27.2998H18.667Z"
      fill="#1E1ECE" />
    <path d="M14 0L20 6H15C14.4477 6 14 5.55228 14 5V0Z" fill="#1E1ECE" />
    <path
      d="M12 8.71669L12.2361 8C12.6239 8.11639 12.9275 8.28178 13.1467 8.49617C13.3659 8.7075 13.5205 8.95406 13.6105 9.23583C13.7032 9.51455 13.7496 9.8147 13.7496 10.1363V11.0735C13.7496 11.2695 13.7749 11.4395 13.8255 11.5835C13.8761 11.7274 13.9562 11.8392 14.0658 11.9188C14.1782 11.9985 14.3229 12.0383 14.5 12.0383V12.7182C14.0644 12.7182 13.7116 12.6462 13.4418 12.5023C13.172 12.3583 12.9739 12.1623 12.8474 11.9142C12.7209 11.6631 12.6577 11.3828 12.6577 11.0735V10.1363C12.6577 9.91271 12.638 9.70597 12.5987 9.51608C12.5621 9.32619 12.4961 9.16233 12.4005 9.0245C12.3049 8.88668 12.1714 8.78407 12 8.71669ZM12.2361 17L12 16.2787C12.1714 16.2113 12.3049 16.1087 12.4005 15.9709C12.4961 15.8331 12.5621 15.6692 12.5987 15.4793C12.638 15.2894 12.6577 15.0827 12.6577 14.8591V13.9219C12.6577 13.6126 12.7209 13.3338 12.8474 13.0858C12.9739 12.8377 13.172 12.6417 13.4418 12.4977C13.7116 12.3507 14.0644 12.2772 14.5 12.2772V12.9617C14.2358 12.9617 14.0447 13.049 13.9266 13.2236C13.8086 13.3982 13.7496 13.6309 13.7496 13.9219V14.8591C13.7496 15.1807 13.7032 15.4809 13.6105 15.7596C13.5205 16.0413 13.3659 16.2879 13.1467 16.4992C12.9275 16.7136 12.6239 16.8806 12.2361 17Z"
      fill="#1E1ECE" />
    <path
      d="M7.76391 8L8 8.71669C7.74424 8.81776 7.56998 8.99694 7.47723 9.25421C7.38449 9.50842 7.33811 9.80245 7.33811 10.1363V11.0735C7.33811 11.3828 7.27487 11.6631 7.1484 11.9142C7.02473 12.1654 6.82799 12.366 6.55818 12.5161C6.28836 12.6631 5.93564 12.7366 5.5 12.7366V12.0383C5.767 12.0383 5.95812 11.951 6.07336 11.7764C6.1914 11.6018 6.25042 11.3675 6.25042 11.0735V10.1363C6.25042 9.8147 6.29539 9.51455 6.38533 9.23583C6.47808 8.95406 6.63406 8.7075 6.85329 8.49617C7.07532 8.28178 7.37886 8.11639 7.76391 8ZM8 16.2787L7.76391 17C7.37886 16.8806 7.07532 16.7136 6.85329 16.4992C6.63406 16.2879 6.47808 16.0413 6.38533 15.7596C6.29539 15.4809 6.25042 15.1807 6.25042 14.8591V13.9219C6.25042 13.7259 6.22372 13.5559 6.17032 13.4119C6.11973 13.268 6.03963 13.1577 5.93002 13.0812C5.8204 13.0015 5.67707 12.9617 5.5 12.9617V12.2588C5.93564 12.2588 6.28836 12.3338 6.55818 12.4839C6.82799 12.6309 7.02473 12.83 7.1484 13.0812C7.27487 13.3323 7.33811 13.6126 7.33811 13.9219V14.8591C7.33811 15.0827 7.35779 15.2894 7.39713 15.4793C7.43929 15.6692 7.50675 15.8331 7.59949 15.9709C7.69505 16.1087 7.82856 16.2113 8 16.2787Z"
      fill="#1E1ECE" />
    <path
      d="M17.8425 21.3789V26H17.0459L14.9734 22.6897V26H14.1768V21.3789H14.9734L17.0522 24.6956V21.3789H17.8425Z"
      fill="#333333" />
    <path
      d="M13.3799 23.5625V23.8164C13.3799 24.1655 13.3344 24.4787 13.2434 24.7559C13.1524 25.033 13.0223 25.269 12.853 25.4636C12.6859 25.6583 12.4849 25.8075 12.25 25.9111C12.0151 26.0127 11.7549 26.0635 11.4692 26.0635C11.1857 26.0635 10.9265 26.0127 10.6917 25.9111C10.4589 25.8075 10.2568 25.6583 10.0854 25.4636C9.91406 25.269 9.78076 25.033 9.68555 24.7559C9.59245 24.4787 9.5459 24.1655 9.5459 23.8164V23.5625C9.5459 23.2134 9.59245 22.9013 9.68555 22.6262C9.77865 22.349 9.90983 22.1131 10.0791 21.9185C10.2505 21.7217 10.4526 21.5725 10.6853 21.4709C10.9202 21.3673 11.1794 21.3154 11.4629 21.3154C11.7485 21.3154 12.0088 21.3673 12.2437 21.4709C12.4785 21.5725 12.6806 21.7217 12.8499 21.9185C13.0191 22.1131 13.1493 22.349 13.2402 22.6262C13.3333 22.9013 13.3799 23.2134 13.3799 23.5625ZM12.5833 23.8164V23.5562C12.5833 23.298 12.5579 23.0706 12.5071 22.8738C12.4584 22.6749 12.3854 22.5088 12.2881 22.3755C12.1929 22.2401 12.0754 22.1385 11.9358 22.0708C11.7961 22.001 11.6385 21.9661 11.4629 21.9661C11.2873 21.9661 11.1307 22.001 10.9932 22.0708C10.8556 22.1385 10.7382 22.2401 10.6409 22.3755C10.5457 22.5088 10.4727 22.6749 10.4219 22.8738C10.3711 23.0706 10.3457 23.298 10.3457 23.5562V23.8164C10.3457 24.0745 10.3711 24.3031 10.4219 24.502C10.4727 24.7008 10.5467 24.8691 10.644 25.0066C10.7435 25.142 10.862 25.2446 10.9995 25.3145C11.137 25.3822 11.2936 25.416 11.4692 25.416C11.647 25.416 11.8046 25.3822 11.9421 25.3145C12.0797 25.2446 12.196 25.142 12.2913 25.0066C12.3865 24.8691 12.4584 24.7008 12.5071 24.502C12.5579 24.3031 12.5833 24.0745 12.5833 23.8164Z"
      fill="#333333" />
    <path
      d="M8.19116 24.8098C8.19116 24.7146 8.17635 24.63 8.14673 24.5559C8.11922 24.4819 8.0695 24.4141 7.99756 24.3528C7.92562 24.2914 7.82406 24.2322 7.69287 24.175C7.5638 24.1158 7.39876 24.0555 7.19775 23.9941C6.9777 23.9264 6.77458 23.8513 6.58838 23.7688C6.4043 23.6842 6.24349 23.5868 6.10596 23.4768C5.96842 23.3647 5.86157 23.2367 5.7854 23.0928C5.70923 22.9468 5.67114 22.7786 5.67114 22.5881C5.67114 22.3998 5.71029 22.2284 5.78857 22.074C5.86898 21.9195 5.98218 21.7862 6.12817 21.6741C6.27629 21.5598 6.45085 21.472 6.65186 21.4106C6.85286 21.3472 7.07503 21.3154 7.31836 21.3154C7.66113 21.3154 7.9563 21.3789 8.20386 21.5059C8.45353 21.6328 8.64502 21.8031 8.77832 22.0168C8.91374 22.2306 8.98145 22.4665 8.98145 22.7246H8.19116C8.19116 22.5723 8.15837 22.4379 8.09277 22.3215C8.0293 22.203 7.93197 22.1099 7.80078 22.0422C7.67171 21.9745 7.50773 21.9407 7.30884 21.9407C7.12052 21.9407 6.96395 21.9692 6.83911 22.0264C6.71427 22.0835 6.62118 22.1607 6.55981 22.2581C6.49845 22.3554 6.46777 22.4654 6.46777 22.5881C6.46777 22.6749 6.48787 22.7542 6.52808 22.8262C6.56828 22.896 6.62964 22.9616 6.71216 23.0229C6.79468 23.0822 6.89836 23.1383 7.02319 23.1912C7.14803 23.2441 7.29508 23.2948 7.46436 23.3435C7.72038 23.4197 7.9436 23.5043 8.13403 23.5974C8.32446 23.6884 8.48315 23.7921 8.61011 23.9084C8.73706 24.0248 8.83228 24.1571 8.89575 24.3052C8.95923 24.4512 8.99097 24.6173 8.99097 24.8035C8.99097 24.9981 8.95182 25.1737 8.87354 25.3303C8.79525 25.4848 8.68311 25.617 8.53711 25.7271C8.39323 25.835 8.21973 25.9185 8.0166 25.9778C7.81559 26.0349 7.59131 26.0635 7.34375 26.0635C7.12158 26.0635 6.90259 26.0339 6.68677 25.9746C6.47306 25.9154 6.2784 25.8254 6.10278 25.7048C5.92716 25.5821 5.78752 25.4298 5.68384 25.2478C5.58016 25.0637 5.52832 24.849 5.52832 24.6035H6.32495C6.32495 24.7537 6.35034 24.8818 6.40112 24.9875C6.45402 25.0933 6.52702 25.1801 6.62012 25.2478C6.71322 25.3134 6.82113 25.3621 6.94385 25.3938C7.06868 25.4255 7.20199 25.4414 7.34375 25.4414C7.52995 25.4414 7.68547 25.415 7.8103 25.3621C7.93726 25.3092 8.03247 25.2351 8.09595 25.1399C8.15942 25.0447 8.19116 24.9347 8.19116 24.8098Z"
      fill="#333333" />
    <path
      d="M4.04883 24.613V21.3789H4.84229V24.613C4.84229 24.9198 4.77669 25.1812 4.64551 25.397C4.51432 25.6128 4.33553 25.7778 4.10913 25.8921C3.88273 26.0063 3.62565 26.0635 3.33789 26.0635C3.04378 26.0635 2.78247 26.0138 2.55396 25.9143C2.32756 25.8149 2.14982 25.6625 2.02075 25.4573C1.89168 25.252 1.82715 24.9918 1.82715 24.6765H2.62695C2.62695 24.8585 2.65552 25.0055 2.71265 25.1177C2.77189 25.2277 2.85441 25.3081 2.96021 25.3589C3.06812 25.4076 3.19401 25.4319 3.33789 25.4319C3.47542 25.4319 3.59709 25.4012 3.70288 25.3398C3.81079 25.2764 3.89543 25.1843 3.95679 25.0637C4.01815 24.941 4.04883 24.7908 4.04883 24.613Z"
      fill="#333333" />
  </g>
  <defs>
    <clipPath id="clip0_1472_19341">
      <rect width="20" height="28" fill="white" />
    </clipPath>
  </defs>
</svg>