<svg width="20" height="28" viewBox="0 0 20 28" fill="none" xmlns="http://www.w3.org/2000/svg">
  <g clip-path="url(#clip0_1472_19334)">
    <path
      d="M0 1.4C0 0.626802 0.596954 0 1.33333 0H14L20 6V26.6C20 27.3732 19.403 28 18.6667 28H1.33333C0.596954 28 0 27.3732 0 26.6V1.4Z"
      fill="white" />
    <path
      d="M0 26.5996V1.40039C0 0.627306 0.596778 0.000184711 1.33301 0H14L20 6V26.5996C20 27.3246 19.4752 27.9216 18.8027 27.9932L18.667 28V27.2998C18.9849 27.2996 19.2998 27.0186 19.2998 26.5996V6.29004L13.71 0.700195H1.33301C1.01513 0.700387 0.700195 0.981358 0.700195 1.40039V26.5996C0.700195 27.0186 1.01513 27.2996 1.33301 27.2998V28C0.596778 27.9998 0 27.3727 0 26.5996ZM18.667 27.2998V28H1.33301V27.2998H18.667Z"
      fill="#FF771C" />
    <path d="M14 0L20 6H15C14.4477 6 14 5.55228 14 5V0Z" fill="#FF771C" />
    <path
      d="M16 8.5C16.5522 8.50007 17 8.94776 17 9.5V16.5C17 17.0522 16.5522 17.4999 16 17.5H4C3.44794 17.4997 3 17.0521 3 16.5V9.5C3 8.94788 3.44794 8.50026 4 8.5H16ZM8.86328 11.1299C8.55126 10.9649 8.16113 11.1711 8.16113 11.501V14.4697C8.16113 14.7996 8.55126 15.0058 8.86328 14.8408L11.6719 13.3564C11.9834 13.1914 11.9834 12.7793 11.6719 12.6143L8.86328 11.1299Z"
      fill="#FF771C" />
    <path
      d="M16.605 24.3528V24.9622H13.2725L13.2471 24.502L15.2402 21.3789H15.8528L15.1895 22.5151L14.0437 24.3528H16.605ZM16.0273 21.3789V26H15.2625V21.3789H16.0273Z"
      fill="#333333" />
    <path
      d="M11.1458 24.2766H9.94287V23.645H11.1458C11.3552 23.645 11.5245 23.6112 11.6536 23.5435C11.7826 23.4757 11.8768 23.3826 11.936 23.2642C11.9974 23.1436 12.0281 23.006 12.0281 22.8516C12.0281 22.7056 11.9974 22.5691 11.936 22.4421C11.8768 22.3131 11.7826 22.2094 11.6536 22.1311C11.5245 22.0528 11.3552 22.0137 11.1458 22.0137H10.1873V26H9.39062V21.3789H11.1458C11.5033 21.3789 11.807 21.4424 12.0566 21.5693C12.3084 21.6942 12.4999 21.8677 12.6311 22.0898C12.7623 22.3099 12.8279 22.5617 12.8279 22.8452C12.8279 23.1436 12.7623 23.3996 12.6311 23.6133C12.4999 23.827 12.3084 23.991 12.0566 24.1052C11.807 24.2195 11.5033 24.2766 11.1458 24.2766Z"
      fill="#333333" />
    <path
      d="M4.02686 21.3789H4.73779L6.07397 24.9431L7.40698 21.3789H8.11792L6.35327 26H5.78833L4.02686 21.3789ZM3.70312 21.3789H4.37915L4.49658 24.4639V26H3.70312V21.3789ZM7.76562 21.3789H8.44482V26H7.64819V24.4639L7.76562 21.3789Z"
      fill="#333333" />
  </g>
  <defs>
    <clipPath id="clip0_1472_19334">
      <rect width="20" height="28" fill="white" />
    </clipPath>
  </defs>
</svg>