<svg width="48" height="67" viewBox="0 0 48 67" fill="none" xmlns="http://www.w3.org/2000/svg">
  <g clip-path="url(#clip0_781_2165)">
    <path
      d="M3.19043 0.5H33.293L47.3574 14.5645V63.6504C47.3572 65.2474 46.1299 66.4998 44.667 66.5H3.19043C1.72737 66.5 0.500197 65.2475 0.5 63.6504V3.34961C0.500188 1.85242 1.57868 0.658213 2.91895 0.514648L3.19043 0.5Z"
      fill="white" stroke="#FF771C" />
    <path d="M33.5 0L40.9777 7.5L48.4554 15H34.5C33.9477 15 33.5 14.5523 33.5 14V0Z" fill="#FF771C" />
    <path
      d="M10.709 50.0469H12.2402L15.1182 57.7236L17.9893 50.0469H19.5205L15.7197 60H14.5029L10.709 50.0469ZM10.0117 50.0469H11.4678L11.7207 56.6914V60H10.0117V50.0469ZM18.7617 50.0469H20.2246V60H18.5088V56.6914L18.7617 50.0469ZM26.042 56.2881H23.4512V54.9277H26.042C26.4932 54.9277 26.8577 54.8548 27.1357 54.709C27.4137 54.5632 27.6165 54.3626 27.7441 54.1074C27.8763 53.8477 27.9424 53.5514 27.9424 53.2188C27.9424 52.9043 27.8763 52.6104 27.7441 52.3369C27.6165 52.0589 27.4137 51.8356 27.1357 51.667C26.8577 51.4984 26.4932 51.4141 26.042 51.4141H23.9775V60H22.2617V50.0469H26.042C26.8122 50.0469 27.4661 50.1836 28.0039 50.457C28.5462 50.7259 28.9587 51.0996 29.2412 51.5781C29.5238 52.0521 29.665 52.5944 29.665 53.2051C29.665 53.8477 29.5238 54.3991 29.2412 54.8594C28.9587 55.3197 28.5462 55.6729 28.0039 55.9189C27.4661 56.165 26.8122 56.2881 26.042 56.2881ZM37.7998 56.4521V57.7646H30.6221L30.5674 56.7734L34.8604 50.0469H36.1797L34.751 52.4941L32.2832 56.4521H37.7998ZM36.5557 50.0469V60H34.9082V50.0469H36.5557Z"
      fill="#333333" />
    <rect x="8.97314" y="20" width="29.9107" height="21" rx="1" fill="#FF771C" />
    <path
      d="M27.5 29.5996C28.1667 29.9845 28.1667 30.9467 27.5 31.3316L21.5 34.7957C20.8333 35.1806 20 34.6995 20 33.9297L20 27.0015C20 26.2317 20.8333 25.7506 21.5 26.1355L27.5 29.5996Z"
      fill="white" />
  </g>
  <defs>
    <clipPath id="clip0_781_2165">
      <rect width="47.8571" height="67" rx="1" fill="white" />
    </clipPath>
  </defs>
</svg>
  