<svg width="48" height="67" viewBox="0 0 48 67" fill="none" xmlns="http://www.w3.org/2000/svg">
  <g clip-path="url(#clip0_769_4391)">
    <path
      d="M3.19043 0.5H33.293L47.3574 14.5645V63.6504C47.3572 65.2474 46.1299 66.4998 44.667 66.5H3.19043C1.72737 66.5 0.500197 65.2475 0.5 63.6504V3.34961C0.500188 1.85242 1.57868 0.658213 2.91895 0.514648L3.19043 0.5Z"
      fill="white" stroke="#E94235" />
    <path
      d="M31.5178 29.159C30.0252 29.159 28.1571 29.427 27.546 29.5214C25.0166 26.8019 24.297 25.2561 24.1351 24.844C24.3545 24.2637 25.1177 22.0592 25.2262 19.228C25.2796 17.8105 24.9888 16.7513 24.3615 16.0799C23.7352 15.4096 22.9772 15.3574 22.7599 15.3574C21.9977 15.3574 20.7192 15.7542 20.7192 18.4114C20.7192 20.7169 21.7632 23.1633 22.0518 23.7954C20.5313 28.3537 18.8988 31.4741 18.5521 32.1158C12.4422 34.4843 11.9644 36.7743 11.9644 37.4234C11.9644 38.5897 12.7711 39.286 14.1225 39.286C17.4057 39.286 20.4019 33.6108 20.8973 32.6254C23.2292 31.6688 26.3503 31.0763 27.1437 30.9349C29.4195 33.1669 32.0516 33.7625 33.1446 33.7625C33.967 33.7625 35.8929 33.7625 35.8929 31.7238C35.893 29.8307 33.5362 29.159 31.5178 29.159ZM31.3596 30.4974C33.133 30.4974 33.6017 31.1012 33.6017 31.4204C33.6017 31.6207 33.5279 32.2744 32.5773 32.2744C31.7249 32.2744 30.2532 31.7672 28.8052 30.6667C29.409 30.585 30.3026 30.4974 31.3596 30.4974ZM22.6668 16.6547C22.8285 16.6547 22.9349 16.7082 23.0227 16.8335C23.5328 17.5622 23.1215 19.9431 22.6209 21.8063C22.1377 20.2087 21.7751 17.7574 22.2853 16.8949C22.3851 16.7266 22.4991 16.6547 22.6668 16.6547ZM21.8055 30.9159C22.4476 29.5805 23.1672 27.6343 23.5592 26.5335C24.3436 27.8852 25.3986 29.1402 26.0088 29.8207C24.1089 30.233 22.6715 30.645 21.8055 30.9159ZM13.2398 37.6015C13.1975 37.5499 13.1912 37.441 13.2231 37.3103C13.2899 37.0363 13.8008 35.6784 17.4956 33.9768C16.9665 34.8348 16.1394 36.0607 15.2308 36.9765C14.5913 37.5929 14.0932 37.9054 13.7506 37.9054C13.628 37.9054 13.4591 37.871 13.2398 37.6015Z"
      fill="#E94235" />
    <path d="M33.5 0L40.9777 7.5L48.4554 15H34.5C33.9477 15 33.5 14.5523 33.5 14V0Z" fill="#E94235" />
    <path
      d="M15.792 56.2881H13.2012V54.9277H15.792C16.2432 54.9277 16.6077 54.8548 16.8857 54.709C17.1637 54.5632 17.3665 54.3626 17.4941 54.1074C17.6263 53.8477 17.6924 53.5514 17.6924 53.2188C17.6924 52.9043 17.6263 52.6104 17.4941 52.3369C17.3665 52.0589 17.1637 51.8356 16.8857 51.667C16.6077 51.4984 16.2432 51.4141 15.792 51.4141H13.7275V60H12.0117V50.0469H15.792C16.5622 50.0469 17.2161 50.1836 17.7539 50.457C18.2962 50.7259 18.7087 51.0996 18.9912 51.5781C19.2738 52.0521 19.415 52.5944 19.415 53.2051C19.415 53.8477 19.2738 54.3991 18.9912 54.8594C18.7087 55.3197 18.2962 55.6729 17.7539 55.9189C17.2161 56.165 16.5622 56.2881 15.792 56.2881ZM23.8447 60H21.7188L21.7324 58.6396H23.8447C24.46 58.6396 24.9749 58.5052 25.3896 58.2363C25.8089 57.9674 26.1234 57.5824 26.333 57.0811C26.5472 56.5798 26.6543 55.9827 26.6543 55.29V54.75C26.6543 54.2122 26.5928 53.736 26.4697 53.3213C26.3512 52.9066 26.1735 52.5579 25.9365 52.2754C25.7041 51.9928 25.417 51.7786 25.0752 51.6328C24.738 51.487 24.3483 51.4141 23.9062 51.4141H21.6777V50.0469H23.9062C24.5671 50.0469 25.1709 50.1585 25.7178 50.3818C26.2646 50.6006 26.7363 50.9173 27.1328 51.332C27.5339 51.7467 27.8415 52.2435 28.0557 52.8223C28.2699 53.401 28.377 54.0482 28.377 54.7637V55.29C28.377 56.0055 28.2699 56.6527 28.0557 57.2314C27.8415 57.8102 27.5339 58.307 27.1328 58.7217C26.7318 59.1318 26.2533 59.4486 25.6973 59.6719C25.1458 59.8906 24.5283 60 23.8447 60ZM22.6689 50.0469V60H20.9531V50.0469H22.6689ZM31.8154 50.0469V60H30.0996V50.0469H31.8154ZM35.876 54.4014V55.7617H31.3779V54.4014H35.876ZM36.4434 50.0469V51.4141H31.3779V50.0469H36.4434Z"
      fill="#333333" />
  </g>
  <defs>
    <clipPath id="clip0_769_4391">
      <rect width="47.8571" height="67" rx="1" fill="white" />
    </clipPath>
  </defs>
</svg>
  