<svg width="20" height="28" viewBox="0 0 20 28" fill="none" xmlns="http://www.w3.org/2000/svg">
  <g clip-path="url(#clip0_1472_19301)">
    <path
      d="M0 1.4C0 0.626802 0.596954 0 1.33333 0H14L20 6V26.6C20 27.3732 19.403 28 18.6667 28H1.33333C0.596954 28 0 27.3732 0 26.6V1.4Z"
      fill="white" />
    <path
      d="M0 26.5996V1.40039C0 0.627306 0.596778 0.000184711 1.33301 0H14L20 6V26.5996C20 27.3246 19.4752 27.9216 18.8027 27.9932L18.667 28V27.2998C18.9849 27.2996 19.2998 27.0186 19.2998 26.5996V6.29004L13.71 0.700195H1.33301C1.01513 0.700387 0.700195 0.981358 0.700195 1.40039V26.5996C0.700195 27.0186 1.01513 27.2996 1.33301 27.2998V28C0.596778 27.9998 0 27.3727 0 26.5996ZM18.667 27.2998V28H1.33301V27.2998H18.667Z"
      fill="#E94235" />
    <path d="M14 0L20 6H15C14.4477 6 14 5.55228 14 5V0Z" fill="#E94235" />
    <path
      d="M13.8059 13.4214C13.0573 13.4214 12.1205 13.5558 11.814 13.6032C10.5456 12.2394 10.1847 11.4641 10.1035 11.2575C10.2135 10.9664 10.5963 9.86093 10.6506 8.44109C10.6775 7.73021 10.5316 7.19904 10.2171 6.86231C9.903 6.52614 9.52288 6.5 9.41386 6.5C9.03164 6.5 8.39046 6.69899 8.39046 8.03155C8.39046 9.18775 8.91405 10.4146 9.05879 10.7316C8.29624 13.0175 7.47756 14.5824 7.30372 14.9043C4.23962 16.092 4 17.2404 4 17.5659C4 18.1508 4.40459 18.5 5.08228 18.5C6.72881 18.5 8.23136 15.654 8.4798 15.1598C9.64922 14.6801 11.2145 14.3829 11.6123 14.312C12.7536 15.4313 14.0736 15.73 14.6217 15.73C15.0342 15.73 16 15.73 16 14.7076C16 13.7582 14.8181 13.4214 13.8059 13.4214ZM13.7265 14.0926C14.6159 14.0926 14.851 14.3954 14.851 14.5555C14.851 14.656 14.8139 14.9837 14.3372 14.9837C13.9097 14.9837 13.1717 14.7294 12.4456 14.1775C12.7483 14.1365 13.1964 14.0926 13.7265 14.0926ZM9.36718 7.15058C9.44828 7.15058 9.50166 7.1774 9.54567 7.24025C9.80147 7.60567 9.59522 8.79969 9.34419 9.73407C9.10186 8.93289 8.92001 7.70356 9.17588 7.27105C9.2259 7.18665 9.28307 7.15058 9.36718 7.15058ZM8.93526 14.3025C9.25725 13.6328 9.61814 12.6568 9.81471 12.1047C10.2081 12.7826 10.7371 13.412 11.0432 13.7532C10.0904 13.96 9.36955 14.1667 8.93526 14.3025ZM4.6396 17.6553C4.61839 17.6293 4.61525 17.5748 4.63124 17.5092C4.66477 17.3719 4.92095 16.6909 6.77386 15.8375C6.50855 16.2678 6.09377 16.8826 5.63812 17.3418C5.31738 17.6509 5.06762 17.8077 4.89578 17.8077C4.83431 17.8077 4.74961 17.7905 4.6396 17.6553Z"
      fill="#E94235" />
    <path
      d="M13.6755 21.3789V26H12.8789V21.3789H13.6755ZM15.5608 23.4006V24.0322H13.4724V23.4006H15.5608ZM15.8242 21.3789V22.0137H13.4724V21.3789H15.8242Z"
      fill="#333333" />
    <path
      d="M9.97437 26H8.9873L8.99365 25.3684H9.97437C10.26 25.3684 10.4991 25.306 10.6917 25.1812C10.8863 25.0563 11.0323 24.8775 11.1296 24.6448C11.2291 24.412 11.2788 24.1348 11.2788 23.8132V23.5625C11.2788 23.3128 11.2502 23.0917 11.1931 22.8992C11.1381 22.7066 11.0556 22.5448 10.9456 22.4136C10.8376 22.2824 10.7043 22.1829 10.5457 22.1152C10.3891 22.0475 10.2082 22.0137 10.0029 22.0137H8.96826V21.3789H10.0029C10.3097 21.3789 10.5901 21.4307 10.844 21.5344C11.0979 21.636 11.3169 21.783 11.501 21.9756C11.6872 22.1681 11.83 22.3988 11.9294 22.6675C12.0289 22.9362 12.0786 23.2367 12.0786 23.5688V23.8132C12.0786 24.1454 12.0289 24.4459 11.9294 24.7146C11.83 24.9833 11.6872 25.2139 11.501 25.4065C11.3148 25.5969 11.0926 25.744 10.8345 25.8477C10.5785 25.9492 10.2917 26 9.97437 26ZM9.42847 21.3789V26H8.63184V21.3789H9.42847Z"
      fill="#333333" />
    <path
      d="M6.2356 24.2766H5.03271V23.645H6.2356C6.44507 23.645 6.61434 23.6112 6.74341 23.5435C6.87248 23.4757 6.96663 23.3826 7.02588 23.2642C7.08724 23.1436 7.11792 23.006 7.11792 22.8516C7.11792 22.7056 7.08724 22.5691 7.02588 22.4421C6.96663 22.3131 6.87248 22.2094 6.74341 22.1311C6.61434 22.0528 6.44507 22.0137 6.2356 22.0137H5.2771V26H4.48047V21.3789H6.2356C6.59318 21.3789 6.89681 21.4424 7.14648 21.5693C7.39827 21.6942 7.58976 21.8677 7.72095 22.0898C7.85213 22.3099 7.91772 22.5617 7.91772 22.8452C7.91772 23.1436 7.85213 23.3996 7.72095 23.6133C7.58976 23.827 7.39827 23.991 7.14648 24.1052C6.89681 24.2195 6.59318 24.2766 6.2356 24.2766Z"
      fill="#333333" />
  </g>
  <defs>
    <clipPath id="clip0_1472_19301">
      <rect width="20" height="28" fill="white" />
    </clipPath>
  </defs>
</svg>