<svg width="20" height="28" viewBox="0 0 20 28" fill="none" xmlns="http://www.w3.org/2000/svg">
  <g clip-path="url(#clip0_1472_19316)">
    <path
      d="M0 1.4C0 0.626802 0.596954 0 1.33333 0H14L20 6V26.6C20 27.3732 19.403 28 18.6667 28H1.33333C0.596954 28 0 27.3732 0 26.6V1.4Z"
      fill="white" />
    <path
      d="M0 26.5996V1.40039C0 0.627306 0.596778 0.000184711 1.33301 0H14L20 6V26.5996C20 27.3246 19.4752 27.9216 18.8027 27.9932L18.667 28V27.2998C18.9849 27.2996 19.2998 27.0186 19.2998 26.5996V6.29004L13.71 0.700195H1.33301C1.01513 0.700387 0.700195 0.981358 0.700195 1.40039V26.5996C0.700195 27.0186 1.01513 27.2996 1.33301 27.2998V28C0.596778 27.9998 0 27.3727 0 26.5996ZM18.667 27.2998V28H1.33301V27.2998H18.667Z"
      fill="#333333" />
    <path d="M14 0L20 6H15C14.4477 6 14 5.55228 14 5V0Z" fill="#333333" />
    <g clip-path="url(#clip1_1472_19316)">
      <rect x="3" y="8.5" width="14" height="9" rx="1" fill="#EFEFEF" />
      <path d="M3 8.5H5V10.5H3V8.5Z" fill="#D9D9D9" />
      <path d="M3 12.5H5V14.5H3V12.5Z" fill="#D9D9D9" />
      <path d="M3 16.5H5V18.5H3V16.5Z" fill="#D9D9D9" />
      <path d="M5 10.5H7V12.5H5V10.5Z" fill="#D9D9D9" />
      <path d="M5 14.5H7V16.5H5V14.5Z" fill="#D9D9D9" />
      <path d="M9 10.5H11V12.5H9V10.5Z" fill="#D9D9D9" />
      <path d="M9 14.5H11V16.5H9V14.5Z" fill="#D9D9D9" />
      <path d="M13 10.5H15V12.5H13V10.5Z" fill="#D9D9D9" />
      <path d="M13 14.5H15V16.5H13V14.5Z" fill="#D9D9D9" />
      <path d="M7 12.5H9V14.5H7V12.5Z" fill="#D9D9D9" />
      <path d="M7 8.5H9V10.5H7V8.5Z" fill="#D9D9D9" />
      <path d="M11 12.5H13V14.5H11V12.5Z" fill="#D9D9D9" />
      <path d="M7 16.5H9V18.5H7V16.5Z" fill="#D9D9D9" />
      <path d="M15 12.5H17V14.5H15V12.5Z" fill="#D9D9D9" />
      <path d="M11 8.5H13V10.5H11V8.5Z" fill="#D9D9D9" />
      <path d="M11 16.5H13V18.5H11V16.5Z" fill="#D9D9D9" />
      <path d="M15 8.5H17V10.5H15V8.5Z" fill="#D9D9D9" />
      <path d="M15 16.5H17V18.5H15V16.5Z" fill="#D9D9D9" />
      <path
        d="M7 11.5C7 12.0523 6.55228 12.5 6 12.5C5.44772 12.5 5 12.0523 5 11.5C5 10.9477 5.44772 10.5 6 10.5C6.55228 10.5 7 10.9477 7 11.5Z"
        fill="#333333" />
      <path
        d="M6.71924 13.3737L5.00049 15.7H15.0005L11.5005 11.0031C11.3442 10.8625 11.1255 10.8625 10.9692 11.0031L8.00049 14.35L7.25049 13.3737C7.09424 13.2331 6.87549 13.2331 6.71924 13.3737Z"
        fill="#333333" />
    </g>
    <path
      d="M16.1858 23.6387V25.4033C16.1202 25.4901 16.0176 25.5853 15.8779 25.689C15.7404 25.7905 15.5574 25.8783 15.3289 25.9524C15.1003 26.0264 14.8158 26.0635 14.4751 26.0635C14.1852 26.0635 13.9197 26.0148 13.6785 25.9175C13.4373 25.818 13.2288 25.6731 13.0532 25.4827C12.8797 25.2922 12.7454 25.0605 12.6501 24.7876C12.5549 24.5125 12.5073 24.1994 12.5073 23.8481V23.5276C12.5073 23.1785 12.5507 22.8674 12.6375 22.5945C12.7263 22.3194 12.8533 22.0867 13.0183 21.8962C13.1833 21.7058 13.3822 21.5619 13.615 21.4646C13.8499 21.3652 14.1154 21.3154 14.4116 21.3154C14.7904 21.3154 15.1035 21.3789 15.3511 21.5059C15.6007 21.6307 15.7933 21.8042 15.9287 22.0264C16.0641 22.2485 16.1498 22.5024 16.1858 22.7881H15.405C15.3796 22.6273 15.3299 22.4834 15.2559 22.3564C15.1839 22.2295 15.0802 22.13 14.9448 22.0581C14.8115 21.984 14.638 21.947 14.4243 21.947C14.2402 21.947 14.0784 21.9819 13.9387 22.0518C13.7991 22.1216 13.6827 22.2242 13.5896 22.3596C13.4986 22.495 13.4299 22.6601 13.3833 22.8547C13.3368 23.0494 13.3135 23.2716 13.3135 23.5212V23.8481C13.3135 24.1021 13.3399 24.3274 13.3928 24.5242C13.4478 24.7209 13.5261 24.887 13.6277 25.0225C13.7314 25.1579 13.8573 25.2605 14.0054 25.3303C14.1535 25.398 14.3206 25.4319 14.5068 25.4319C14.6888 25.4319 14.838 25.4171 14.9543 25.3875C15.0707 25.3557 15.1628 25.3187 15.2305 25.2764C15.3003 25.2319 15.3542 25.1896 15.3923 25.1494V24.2322H14.4307V23.6387H16.1858Z"
      fill="#333333" />
    <path
      d="M11.6882 21.3789V26H10.8916L8.81909 22.6897V26H8.02246V21.3789H8.81909L10.8979 24.6956V21.3789H11.6882Z"
      fill="#333333" />
    <path
      d="M5.62622 24.2766H4.42334V23.645H5.62622C5.83569 23.645 6.00496 23.6112 6.13403 23.5435C6.2631 23.4757 6.35726 23.3826 6.4165 23.2642C6.47786 23.1436 6.50854 23.006 6.50854 22.8516C6.50854 22.7056 6.47786 22.5691 6.4165 22.4421C6.35726 22.3131 6.2631 22.2094 6.13403 22.1311C6.00496 22.0528 5.83569 22.0137 5.62622 22.0137H4.66772V26H3.87109V21.3789H5.62622C5.98381 21.3789 6.28743 21.4424 6.53711 21.5693C6.7889 21.6942 6.98039 21.8677 7.11157 22.0898C7.24276 22.3099 7.30835 22.5617 7.30835 22.8452C7.30835 23.1436 7.24276 23.3996 7.11157 23.6133C6.98039 23.827 6.7889 23.991 6.53711 24.1052C6.28743 24.2195 5.98381 24.2766 5.62622 24.2766Z"
      fill="#333333" />
  </g>
  <defs>
    <clipPath id="clip0_1472_19316">
      <rect width="20" height="28" fill="white" />
    </clipPath>
    <clipPath id="clip1_1472_19316">
      <rect x="3" y="8.5" width="14" height="9" rx="1" fill="white" />
    </clipPath>
  </defs>
</svg>