<svg width="48" height="67" viewBox="0 0 48 67" fill="none" xmlns="http://www.w3.org/2000/svg">
  <g clip-path="url(#clip0_769_4498)">
    <path
      d="M3.19043 0.5H33.293L47.3574 14.5645V63.6504C47.3572 65.2474 46.1299 66.4998 44.667 66.5H3.19043C1.72737 66.5 0.500197 65.2475 0.5 63.6504V3.34961C0.500188 1.85242 1.57868 0.658213 2.91895 0.514648L3.19043 0.5Z"
      fill="white" stroke="#333333" />
    <rect x="9" y="20" width="30" height="21" rx="1" fill="#EFEFEF" />
    <g clip-path="url(#clip1_769_4498)">
      <rect x="9" y="20" width="2" height="2" fill="#D9D9D9" />
      <rect x="25" y="20" width="2" height="2" fill="#D9D9D9" />
      <rect x="9" y="24" width="2" height="2" fill="#D9D9D9" />
      <rect x="25" y="24" width="2" height="2" fill="#D9D9D9" />
      <rect x="25" y="28" width="2" height="2" fill="#D9D9D9" />
      <rect x="25" y="32" width="2" height="2" fill="#D9D9D9" />
      <rect x="25" y="36" width="2" height="2" fill="#D9D9D9" />
      <rect x="25" y="40" width="2" height="2" fill="#D9D9D9" />
      <rect x="9" y="28" width="2" height="2" fill="#D9D9D9" />
      <rect x="9" y="32" width="2" height="2" fill="#D9D9D9" />
      <rect x="9" y="36" width="2" height="2" fill="#D9D9D9" />
      <rect x="9" y="40" width="2" height="2" fill="#D9D9D9" />
      <rect x="11" y="22" width="2" height="2" fill="#D9D9D9" />
      <rect x="11" y="30" width="2" height="2" fill="#D9D9D9" />
      <rect x="11" y="34" width="2" height="2" fill="#D9D9D9" />
      <rect x="11" y="38" width="2" height="2" fill="#D9D9D9" />
      <rect x="23" y="22" width="2" height="2" fill="#D9D9D9" />
      <rect x="35" y="22" width="2" height="2" fill="#D9D9D9" />
      <rect x="23" y="26" width="2" height="2" fill="#D9D9D9" />
      <rect x="23" y="30" width="2" height="2" fill="#D9D9D9" />
      <rect x="23" y="34" width="2" height="2" fill="#D9D9D9" />
      <rect x="23" y="38" width="2" height="2" fill="#D9D9D9" />
      <rect x="35" y="26" width="2" height="2" fill="#D9D9D9" />
      <rect x="35" y="30" width="2" height="2" fill="#D9D9D9" />
      <rect x="35" y="34" width="2" height="2" fill="#D9D9D9" />
      <rect x="35" y="38" width="2" height="2" fill="#D9D9D9" />
      <rect x="27" y="22" width="2" height="2" fill="#D9D9D9" />
      <rect x="15" y="22" width="2" height="2" fill="#D9D9D9" />
      <rect x="15" y="30" width="2" height="2" fill="#D9D9D9" />
      <rect x="15" y="34" width="2" height="2" fill="#D9D9D9" />
      <rect x="15" y="38" width="2" height="2" fill="#D9D9D9" />
      <rect x="31" y="22" width="2" height="2" fill="#D9D9D9" />
      <rect x="11" y="26" width="2" height="2" fill="#D9D9D9" />
      <rect x="27" y="26" width="2" height="2" fill="#D9D9D9" />
      <rect x="27" y="30" width="2" height="2" fill="#D9D9D9" />
      <rect x="27" y="34" width="2" height="2" fill="#D9D9D9" />
      <rect x="27" y="38" width="2" height="2" fill="#D9D9D9" />
      <rect x="19" y="22" width="2" height="2" fill="#D9D9D9" />
      <rect x="19" y="30" width="2" height="2" fill="#D9D9D9" />
      <rect x="19" y="34" width="2" height="2" fill="#D9D9D9" />
      <rect x="19" y="38" width="2" height="2" fill="#D9D9D9" />
      <rect x="31" y="26" width="2" height="2" fill="#D9D9D9" />
      <rect x="31" y="30" width="2" height="2" fill="#D9D9D9" />
      <rect x="31" y="34" width="2" height="2" fill="#D9D9D9" />
      <rect x="31" y="38" width="2" height="2" fill="#D9D9D9" />
      <rect x="15" y="26" width="2" height="2" fill="#D9D9D9" />
      <rect x="19" y="26" width="2" height="2" fill="#D9D9D9" />
      <rect x="13" y="24" width="2" height="2" fill="#D9D9D9" />
      <rect x="13" y="20" width="2" height="2" fill="#D9D9D9" />
      <rect x="29" y="24" width="2" height="2" fill="#D9D9D9" />
      <rect x="29" y="28" width="2" height="2" fill="#D9D9D9" />
      <rect x="29" y="32" width="2" height="2" fill="#D9D9D9" />
      <rect x="29" y="36" width="2" height="2" fill="#D9D9D9" />
      <rect x="29" y="40" width="2" height="2" fill="#D9D9D9" />
      <rect x="29" y="20" width="2" height="2" fill="#D9D9D9" />
      <rect x="17" y="24" width="2" height="2" fill="#D9D9D9" />
      <rect x="33" y="24" width="2" height="2" fill="#D9D9D9" />
      <rect x="33" y="28" width="2" height="2" fill="#D9D9D9" />
      <rect x="33" y="32" width="2" height="2" fill="#D9D9D9" />
      <rect x="33" y="36" width="2" height="2" fill="#D9D9D9" />
      <rect x="33" y="40" width="2" height="2" fill="#D9D9D9" />
      <rect x="13" y="28" width="2" height="2" fill="#D9D9D9" />
      <rect x="13" y="32" width="2" height="2" fill="#D9D9D9" />
      <rect x="13" y="36" width="2" height="2" fill="#D9D9D9" />
      <rect x="13" y="40" width="2" height="2" fill="#D9D9D9" />
      <rect x="17" y="20" width="2" height="2" fill="#D9D9D9" />
      <rect x="21" y="24" width="2" height="2" fill="#D9D9D9" />
      <rect x="21" y="20" width="2" height="2" fill="#D9D9D9" />
      <rect x="37" y="24" width="2" height="2" fill="#D9D9D9" />
      <rect x="37" y="28" width="2" height="2" fill="#D9D9D9" />
      <rect x="37" y="32" width="2" height="2" fill="#D9D9D9" />
      <rect x="37" y="36" width="2" height="2" fill="#D9D9D9" />
      <rect x="37" y="40" width="2" height="2" fill="#D9D9D9" />
      <rect x="33" y="20" width="2" height="2" fill="#D9D9D9" />
      <rect x="17" y="28" width="2" height="2" fill="#D9D9D9" />
      <rect x="17" y="32" width="2" height="2" fill="#D9D9D9" />
      <rect x="17" y="36" width="2" height="2" fill="#D9D9D9" />
      <rect x="17" y="40" width="2" height="2" fill="#D9D9D9" />
      <rect x="37" y="20" width="2" height="2" fill="#D9D9D9" />
      <rect x="21" y="28" width="2" height="2" fill="#D9D9D9" />
      <rect x="21" y="32" width="2" height="2" fill="#D9D9D9" />
      <rect x="21" y="36" width="2" height="2" fill="#D9D9D9" />
      <rect x="21" y="40" width="2" height="2" fill="#D9D9D9" />
    </g>
    <ellipse cx="15.429" cy="26.3002" rx="2.14286" ry="2.1" fill="#333333" />
    <path
      d="M16.9692 31.3722L13.2861 36.8002H34.7147L27.2147 25.8408C26.8799 25.5127 26.4111 25.5127 26.0763 25.8408L19.7147 33.6502L18.1076 31.3722C17.7727 31.044 17.304 31.044 16.9692 31.3722Z"
      fill="#333333" />
    <path d="M33.5 0L40.9777 7.5L48.4554 15H34.5C33.9477 15 33.5 14.5523 33.5 14V0Z" fill="#333333" />
    <path
      d="M14.292 56.2881H11.7012V54.9277H14.292C14.7432 54.9277 15.1077 54.8548 15.3857 54.709C15.6637 54.5632 15.8665 54.3626 15.9941 54.1074C16.1263 53.8477 16.1924 53.5514 16.1924 53.2188C16.1924 52.9043 16.1263 52.6104 15.9941 52.3369C15.8665 52.0589 15.6637 51.8356 15.3857 51.667C15.1077 51.4984 14.7432 51.4141 14.292 51.4141H12.2275V60H10.5117V50.0469H14.292C15.0622 50.0469 15.7161 50.1836 16.2539 50.457C16.7962 50.7259 17.2087 51.0996 17.4912 51.5781C17.7738 52.0521 17.915 52.5944 17.915 53.2051C17.915 53.8477 17.7738 54.3991 17.4912 54.8594C17.2087 55.3197 16.7962 55.6729 16.2539 55.9189C15.7161 56.165 15.0622 56.2881 14.292 56.2881ZM27.3486 50.0469V60H25.6328L21.1689 52.8701V60H19.4531V50.0469H21.1689L25.6465 57.1904V50.0469H27.3486ZM37.0352 54.9141V58.7148C36.8939 58.9017 36.6729 59.1068 36.3721 59.3301C36.0758 59.5488 35.6816 59.738 35.1895 59.8975C34.6973 60.057 34.0843 60.1367 33.3506 60.1367C32.7262 60.1367 32.1543 60.0319 31.6348 59.8223C31.1152 59.6081 30.6663 59.2959 30.2881 58.8857C29.9144 58.4756 29.625 57.9766 29.4199 57.3887C29.2148 56.7962 29.1123 56.1217 29.1123 55.3652V54.6748C29.1123 53.9229 29.2057 53.2529 29.3926 52.665C29.584 52.0726 29.8574 51.5713 30.2129 51.1611C30.5684 50.751 30.9967 50.4411 31.498 50.2314C32.0039 50.0173 32.5758 49.9102 33.2139 49.9102C34.0296 49.9102 34.7041 50.0469 35.2373 50.3203C35.7751 50.5892 36.1898 50.9629 36.4814 51.4414C36.7731 51.9199 36.9577 52.4668 37.0352 53.082H35.3535C35.2988 52.7357 35.1917 52.4258 35.0322 52.1523C34.8773 51.8789 34.654 51.6647 34.3623 51.5098C34.0752 51.3503 33.7015 51.2705 33.2412 51.2705C32.8447 51.2705 32.4961 51.3457 32.1953 51.4961C31.8945 51.6465 31.6439 51.8675 31.4434 52.1592C31.2474 52.4508 31.0993 52.8063 30.999 53.2256C30.8988 53.6449 30.8486 54.1234 30.8486 54.6611V55.3652C30.8486 55.9121 30.9056 56.3975 31.0195 56.8213C31.138 57.2451 31.3066 57.6029 31.5254 57.8945C31.7487 58.1862 32.0199 58.4072 32.3389 58.5576C32.6579 58.7035 33.0179 58.7764 33.4189 58.7764C33.8109 58.7764 34.1322 58.7445 34.3828 58.6807C34.6335 58.6123 34.8317 58.5326 34.9775 58.4414C35.1279 58.3457 35.2441 58.2546 35.3262 58.168V56.1924H33.2549V54.9141H37.0352Z"
      fill="#333333" />
  </g>
  <defs>
    <clipPath id="clip0_769_4498">
      <rect width="47.8571" height="67" rx="1" fill="white" />
    </clipPath>
    <clipPath id="clip1_769_4498">
      <rect x="9" y="20" width="30" height="21" rx="1" fill="white" />
    </clipPath>
  </defs>
</svg>
  