<svg width="48" height="67" viewBox="0 0 48 67" fill="none" xmlns="http://www.w3.org/2000/svg">
  <g clip-path="url(#clip0_808_14833)">
    <path
      d="M3.19043 0.5H33.293L47.3574 14.5645V63.6504C47.3572 65.2474 46.1299 66.4998 44.667 66.5H3.19043C1.72737 66.5 0.500197 65.2475 0.5 63.6504V3.34961C0.500188 1.85242 1.57868 0.658213 2.91895 0.514648L3.19043 0.5Z"
      fill="white" stroke="#808080" />
    <path
      d="M24.1768 31.2295H22.2168C22.2227 30.6846 22.2695 30.2275 22.3574 29.8584C22.4453 29.4834 22.5918 29.1436 22.7969 28.8389C23.0078 28.5342 23.2861 28.2119 23.6318 27.8721C23.9014 27.6143 24.1445 27.3711 24.3613 27.1426C24.5781 26.9082 24.751 26.6621 24.8799 26.4043C25.0088 26.1406 25.0732 25.8389 25.0732 25.499C25.0732 25.1299 25.0117 24.8164 24.8887 24.5586C24.7656 24.3008 24.584 24.1045 24.3438 23.9697C24.1094 23.835 23.8164 23.7676 23.4648 23.7676C23.1719 23.7676 22.8965 23.8262 22.6387 23.9434C22.3809 24.0547 22.1729 24.2305 22.0146 24.4707C21.8564 24.7051 21.7715 25.0156 21.7598 25.4023H19.6416C19.6533 24.6641 19.8291 24.043 20.1689 23.5391C20.5088 23.0352 20.9658 22.6572 21.54 22.4053C22.1143 22.1533 22.7559 22.0273 23.4648 22.0273C24.25 22.0273 24.9209 22.1621 25.4775 22.4316C26.0342 22.6953 26.459 23.082 26.752 23.5918C27.0508 24.0957 27.2002 24.7051 27.2002 25.4199C27.2002 25.9355 27.0977 26.4043 26.8926 26.8262C26.6875 27.2422 26.4209 27.6318 26.0928 27.9951C25.7646 28.3525 25.4102 28.71 25.0293 29.0674C24.7012 29.3662 24.4785 29.6914 24.3613 30.043C24.2441 30.3887 24.1826 30.7842 24.1768 31.2295ZM22.041 33.9717C22.041 33.6553 22.1494 33.3887 22.3662 33.1719C22.583 32.9492 22.8789 32.8379 23.2539 32.8379C23.6289 32.8379 23.9248 32.9492 24.1416 33.1719C24.3584 33.3887 24.4668 33.6553 24.4668 33.9717C24.4668 34.2881 24.3584 34.5576 24.1416 34.7803C23.9248 34.9971 23.6289 35.1055 23.2539 35.1055C22.8789 35.1055 22.583 34.9971 22.3662 34.7803C22.1494 34.5576 22.041 34.2881 22.041 33.9717Z"
      fill="#808080" />
    <path d="M33.5 0L40.9777 7.5L48.4554 15H34.5C33.9477 15 33.5 14.5523 33.5 14V0Z" fill="#808080" />
    <path
      d="M17.3174 50.0469L19.4297 53.6768L21.542 50.0469H23.5176L20.5098 54.9756L23.5928 60H21.5967L19.4297 56.3018L17.2627 60H15.2598L18.3496 54.9756L15.335 50.0469H17.3174ZM25.8076 50.0469L28.1182 54.7979L30.4287 50.0469H32.3291L28.9795 56.3359V60H27.25V56.3359L23.9004 50.0469H25.8076Z"
      fill="#333333" />
  </g>
  <defs>
    <clipPath id="clip0_808_14833">
      <rect width="47.8571" height="67" rx="1" fill="white" />
    </clipPath>
  </defs>
</svg>
  