<svg width="17" height="18" viewBox="0 0 17 18" fill="none" xmlns="http://www.w3.org/2000/svg">
<path fill-rule="evenodd" clip-rule="evenodd" d="M17 2.3125V3.71875C17 5 13.8438 6 10 6C6.125 6 3 5 3 3.71875V2.3125C3 1.03125 6.125 0 10 0C13.8438 0 17 1.03125 17 2.3125ZM17 5.5V8.71875C17 10 13.8438 11 10 11V9.80005C10 9.24776 9.55228 8.80005 9 8.80005H3.00421C3.00141 8.77308 3 8.74598 3 8.71875V5.5C4.5 6.5625 7.25 7.03125 10 7.03125C12.7188 7.03125 15.4688 6.5625 17 5.5ZM10 12.0312V16C13.8438 16 17 15 17 13.7188V10.5C15.4688 11.5625 12.7188 12.0312 10 12.0312ZM0.5625 12.2857V17.4286C0.5625 17.75 0.808594 18 1.125 18H7.875C8.17383 18 8.4375 17.75 8.4375 17.4286V12.2857H0.5625ZM3.375 13.7857V13.6429C3.375 13.5357 3.46289 13.4286 3.58594 13.4286H5.41406C5.51953 13.4286 5.625 13.5357 5.625 13.6429V13.7857C5.625 13.9107 5.51953 14 5.41406 14H3.58594C3.46289 14 3.375 13.9107 3.375 13.7857ZM9 10.5714C9 10.2679 8.73633 10 8.4375 10H0.5625C0.246094 10 0 10.2679 0 10.5714V11.4286C0 11.5893 0.123047 11.7143 0.28125 11.7143H8.71875C8.85938 11.7143 9 11.5893 9 11.4286V10.5714Z" fill="#333333"/>
</svg>
