<svg width="13" height="15" viewBox="0 0 13 15" fill="none" xmlns="http://www.w3.org/2000/svg">
<path d="M12.625 2.77344V4.00391C12.625 5.125 9.86328 6 6.5 6C3.10938 6 0.375 5.125 0.375 4.00391V2.77344C0.375 1.65234 3.10938 0.75 6.5 0.75C9.86328 0.75 12.625 1.65234 12.625 2.77344ZM12.625 5.5625V8.37891C12.625 9.5 9.86328 10.375 6.5 10.375C3.10938 10.375 0.375 9.5 0.375 8.37891V5.5625C1.6875 6.49219 4.09375 6.90234 6.5 6.90234C8.87891 6.90234 11.2852 6.49219 12.625 5.5625ZM12.625 9.9375V12.7539C12.625 13.875 9.86328 14.75 6.5 14.75C3.10938 14.75 0.375 13.875 0.375 12.7539V9.9375C1.6875 10.8672 4.09375 11.2773 6.5 11.2773C8.87891 11.2773 11.2852 10.8672 12.625 9.9375Z" fill="#333333"/>
</svg>
