<svg width="24" height="24" viewBox="0 0 24 24" fill="none" xmlns="http://www.w3.org/2000/svg">
<path d="M19 6.3125V7.71875C19 9 15.8438 10 12 10C8.125 10 5 9 5 7.71875V6.3125C5 5.03125 8.125 4 12 4C15.8438 4 19 5.03125 19 6.3125ZM19 9.5V12.7188C19 14 15.8438 15 12 15C8.125 15 5 14 5 12.7188V9.5C6.5 10.5625 9.25 11.0312 12 11.0312C14.7188 11.0312 17.4688 10.5625 19 9.5ZM19 14.5V17.7188C19 19 15.8438 20 12 20C8.125 20 5 19 5 17.7188V14.5C6.5 15.5625 9.25 16.0312 12 16.0312C14.7188 16.0312 17.4688 15.5625 19 14.5Z" fill="#333333"/>
</svg>
