<svg width="24" height="24" viewBox="0 0 24 24" fill="none" xmlns="http://www.w3.org/2000/svg">
<path fill-rule="evenodd" clip-rule="evenodd" d="M2.5625 16.2857V21.4286C2.5625 21.75 2.80859 22 3.125 22H9.875C10.1738 22 10.4375 21.75 10.4375 21.4286V16.2857H2.5625ZM5.375 17.7857V17.6429C5.375 17.5357 5.46289 17.4286 5.58594 17.4286H7.41406C7.51953 17.4286 7.625 17.5357 7.625 17.6429V17.7857C7.625 17.9107 7.51953 18 7.41406 18H5.58594C5.46289 18 5.375 17.9107 5.375 17.7857ZM11 14.5714C11 14.2679 10.7363 14 10.4375 14H2.5625C2.24609 14 2 14.2679 2 14.5714V15.4286C2 15.5893 2.12305 15.7143 2.28125 15.7143H10.7188C10.8594 15.7143 11 15.5893 11 15.4286V14.5714ZM19 17.7188C19 19 15.8438 20 12 20V16.0312C14.7188 16.0312 17.4688 15.5625 19 14.5V17.7188Z" fill="#999999"/>
<path fill-rule="evenodd" clip-rule="evenodd" d="M19 7.71875V6.3125C19 5.03125 15.8438 4 12 4C8.125 4 5 5.03125 5 6.3125V7.71875C5 9 8.125 10 12 10C15.8438 10 19 9 19 7.71875ZM19 12.7188V9.5C17.4688 10.5625 14.7188 11.0312 12 11.0312C9.25 11.0312 6.5 10.5625 5 9.5V12.7188C5 12.746 5.00141 12.7731 5.00421 12.8H11C11.5523 12.8 12 13.2478 12 13.8V15C15.8438 15 19 14 19 12.7188Z" fill="#333333"/>
</svg>
