<svg xmlns="http://www.w3.org/2000/svg" viewBox="0 0 344.22 119.13"><defs><style>.a{fill:#333;}</style></defs><title>GRUD+Claim-Logo</title><path class="a" d="M84.67,295.71v13.72H83.05V295.71H78.66v-1.45h10.4v1.45Z" transform="translate(-77.89 -190.43)"/><path class="a" d="M101.78,309.44v-6.93h-7.2v6.93H93V294.26h1.62v6.8h7.2v-6.8h1.62v15.17Z" transform="translate(-77.89 -190.43)"/><path class="a" d="M108.86,309.44V294.26h9.42v1.45h-7.8v5.35h6.65v1.45h-6.65V308h7.8v1.45Z" transform="translate(-77.89 -190.43)"/><path class="a" d="M133,309.57a6.62,6.62,0,0,1-5.2-2l1.11-1.11a5.21,5.21,0,0,0,4.13,1.66c2.22,0,3.58-1,3.58-2.81a2.44,2.44,0,0,0-.72-1.9,3.27,3.27,0,0,0-2-.72l-1.77-.28a5.51,5.51,0,0,1-2.79-1.15,3.59,3.59,0,0,1-1.15-2.83c0-2.58,1.85-4.28,4.86-4.28a6.09,6.09,0,0,1,4.52,1.66l-1,1a4.78,4.78,0,0,0-3.54-1.3c-2,0-3.2,1.13-3.2,2.81a2.19,2.19,0,0,0,.68,1.75,4.36,4.36,0,0,0,2,.83l1.66.26a4.88,4.88,0,0,1,2.77,1.07,3.8,3.8,0,0,1,1.28,3C138.23,307.92,136.14,309.57,133,309.57Z" transform="translate(-77.89 -190.43)"/><path class="a" d="M147.13,295.71v13.72h-1.62V295.71h-4.39v-1.45h10.4v1.45Z" transform="translate(-77.89 -190.43)"/><path class="a" d="M164.14,309.44l-3.45-6.73H157v6.73h-1.62V294.26h5.82c2.64,0,4.5,1.6,4.5,4.22a3.94,3.94,0,0,1-3.3,4.07l3.6,6.88Zm-3-13.72h-4v5.56h4c1.77,0,3-.92,3-2.77S162.86,295.71,161.09,295.71Z" transform="translate(-77.89 -190.43)"/><path class="a" d="M179.08,308a5.56,5.56,0,0,1-7.76,0c-1.43-1.43-1.43-2.92-1.43-6.14s0-4.71,1.43-6.14a5.56,5.56,0,0,1,7.76,0c1.43,1.43,1.43,2.92,1.43,6.14S180.51,306.56,179.08,308Zm-1.26-11.32a3.7,3.7,0,0,0-5.24,0c-1,1-1.07,2-1.07,5.18s.11,4.2,1.07,5.18a3.7,3.7,0,0,0,5.24,0c1-1,1.07-2,1.07-5.18S178.78,297.65,177.82,296.67Z" transform="translate(-77.89 -190.43)"/><path class="a" d="M195.06,309.44,187,297.27v12.17h-1.62V294.26h1.53L195,306.39V294.26h1.62v15.17Z" transform="translate(-77.89 -190.43)"/><path class="a" d="M210.83,307.82a5.56,5.56,0,0,1-7.93.17c-1.43-1.43-1.43-2.92-1.43-6.14s0-4.71,1.43-6.14a5.37,5.37,0,0,1,3.88-1.58,5.17,5.17,0,0,1,5.31,4.54h-1.62a3.73,3.73,0,0,0-6.31-2c-1,1-1.07,2-1.07,5.18s.11,4.22,1.07,5.2a3.65,3.65,0,0,0,2.62,1.07,3.7,3.7,0,0,0,2.88-1.3,4,4,0,0,0,.85-2.75v-1.15h-3.73v-1.43h5.35v2.41A5.24,5.24,0,0,1,210.83,307.82Z" transform="translate(-77.89 -190.43)"/><path class="a" d="M232.19,309.44,231,306h-6.63l-1.21,3.43H221.4L227,294.26h1.36l5.56,15.17Zm-4.5-12.85-2.86,8h5.67Z" transform="translate(-77.89 -190.43)"/><path class="a" d="M247.1,309.44,239,297.27v12.17h-1.62V294.26H239L247,306.39V294.26h1.62v15.17Z" transform="translate(-77.89 -190.43)"/><path class="a" d="M263.13,308a5.3,5.3,0,0,1-3.84,1.41h-5.2V294.26h5.2a5.3,5.3,0,0,1,3.84,1.41c1.58,1.58,1.49,3.9,1.49,6S264.71,306.45,263.13,308ZM262,296.82a4,4,0,0,0-3-1.11h-3.3V308H259a4,4,0,0,0,3-1.11c1-1.09,1-3.35,1-5.2S263,297.91,262,296.82Z" transform="translate(-77.89 -190.43)"/><path class="a" d="M277.49,295.71v5.58h6.65v1.45h-6.65v6.69h-1.62V294.26h9.42v1.45Z" transform="translate(-77.89 -190.43)"/><path class="a" d="M298,309.44l-3.45-6.73h-3.64v6.73H289.3V294.26h5.82c2.64,0,4.5,1.6,4.5,4.22a3.94,3.94,0,0,1-3.3,4.07l3.6,6.88Zm-3-13.72h-4v5.56h4c1.77,0,3-.92,3-2.77S296.74,295.71,295,295.71Z" transform="translate(-77.89 -190.43)"/><path class="a" d="M304.35,309.44V294.26H306v15.17Z" transform="translate(-77.89 -190.43)"/><path class="a" d="M311.42,309.44V294.26h9.42v1.45H313v5.35h6.65v1.45H313V308h7.8v1.45Z" transform="translate(-77.89 -190.43)"/><path class="a" d="M334.95,309.44l-8.06-12.17v12.17h-1.62V294.26h1.53l8.06,12.13V294.26h1.62v15.17Z" transform="translate(-77.89 -190.43)"/><path class="a" d="M351,308a5.3,5.3,0,0,1-3.84,1.41h-5.2V294.26h5.2a5.3,5.3,0,0,1,3.84,1.41c1.58,1.58,1.49,3.9,1.49,6S352.55,306.45,351,308Zm-1.13-11.21a4,4,0,0,0-3-1.11h-3.3V308h3.3a4,4,0,0,0,3-1.11c1-1.09,1-3.35,1-5.2S350.89,297.91,349.85,296.82Z" transform="translate(-77.89 -190.43)"/><path class="a" d="M357.35,309.44V294.26H359V308h7.76v1.45Z" transform="translate(-77.89 -190.43)"/><path class="a" d="M373,303.17v6.27h-1.62v-6.27l-4.52-8.91h1.75l3.58,7.27,3.54-7.27h1.75Z" transform="translate(-77.89 -190.43)"/><path class="a" d="M393,303.19h-4v6.24h-1.62V294.26H393c2.77,0,4.69,1.73,4.69,4.45A4.33,4.33,0,0,1,393,303.19Zm-.15-7.48h-3.88v6h3.88c1.9,0,3.22-1,3.22-3S394.71,295.71,392.81,295.71Z" transform="translate(-77.89 -190.43)"/><path class="a" d="M401.8,309.44V294.26h1.62v15.17Z" transform="translate(-77.89 -190.43)"/><path class="a" d="M420.26,309.44V297.91l-4.16,9.14h-1.39l-4.22-9.14v11.53h-1.62V294.26h1.62L415.44,305l4.82-10.76h1.62v15.17Z" transform="translate(-77.89 -190.43)"/><path class="a" d="M139.57,273.7C131.68,281.85,122.89,284,112.8,284c-10.73,0-18.88-3.62-25.6-10.34-9.7-9.7-9.31-22.63-9.31-36.46s-.39-26.76,9.31-36.46c6.72-6.72,14.48-10.34,25.6-10.34,23.66,0,33.75,15.39,35.94,30.51H126c-1.81-7-5.43-10.34-13.19-10.34a11.05,11.05,0,0,0-8.92,4c-2.07,2.72-3.36,5.82-3.36,22.63s1.29,20,3.36,22.76c1.68,2.2,4.78,3.88,8.92,3.88,4.78,0,8-1.42,10.09-3.62,2.59-2.59,3.49-6.34,3.49-9.83v-1.29H112.8V230.26h36.07v12.8C148.88,257.93,146.55,266.59,139.57,273.7Z" transform="translate(-77.89 -190.43)"/><path class="a" d="M295,284c-19.14,0-34.78-12.93-34.78-33.1V191.21h22.63v59.22c0,8.53,4.65,13.45,12.15,13.45s12.41-4.91,12.41-13.45V191.21H330v59.74C330,271.12,314.11,284,295,284Z" transform="translate(-77.89 -190.43)"/><path class="a" d="M412.51,200.26c-6.34-6.34-15.26-9.05-24.82-9.05H353.55v66.35h22.63V211.38h10c5.69,0,8.79,2.07,10.86,5.17,1.81,2.59,2.46,5.17,2.46,20.69s-.65,18.1-2.46,20.69c-2.07,3.1-5.17,5.17-10.86,5.17H353.55v20.17h34.13c9.57,0,18.49-2.72,24.82-9.05,10.73-10.73,9.57-22.5,9.57-37S423.24,211,412.51,200.26Z" transform="translate(-77.89 -190.43)"/><path class="a" d="M223.87,244.87a26.48,26.48,0,0,0,15-24c0-15.13-11-29.61-31.42-29.61H171v20.25h33.3v.05h2.13c6.21,0,9.83,4.53,9.83,9.31s-3.62,9.31-9.83,9.31h-12.8V217H171v66.27h22.63V249h7.63l16.29,34.26h26.25Z" transform="translate(-77.89 -190.43)"/></svg>