<svg xmlns="http://www.w3.org/2000/svg" viewBox="0 0 280.6 76.31"><defs><style>.a{fill:#333;}</style></defs><title>GRUD-Logo</title><path class="a" d="M153.33,250c-6.43,6.64-13.6,8.43-21.82,8.43-8.75,0-15.39-3-20.87-8.43-7.9-7.9-7.59-18.44-7.59-29.72s-.32-21.82,7.59-29.72c5.48-5.48,11.8-8.43,20.87-8.43,19.29,0,27.51,12.54,29.3,24.87H142.26c-1.48-5.69-4.43-8.43-10.75-8.43a9,9,0,0,0-7.27,3.27c-1.69,2.21-2.74,4.74-2.74,18.44s1.05,16.34,2.74,18.55a9,9,0,0,0,7.27,3.16c3.9,0,6.53-1.16,8.22-3a11.2,11.2,0,0,0,2.85-8V230H131.51V214.57h29.41V225C160.92,237.13,159,244.19,153.33,250Z" transform="translate(-103.06 -182.11)"/><path class="a" d="M280,258.42c-15.6,0-28.35-10.54-28.35-27V182.74h18.44V231c0,7,3.79,11,9.91,11s10.12-4,10.12-11V182.74h18.44v48.69C308.58,247.88,295.62,258.42,280,258.42Z" transform="translate(-103.06 -182.11)"/><path class="a" d="M375.82,190.12c-5.16-5.16-12.44-7.38-20.24-7.38H327.76v54.09h18.44V199.18h8.12c4.64,0,7.17,1.69,8.85,4.22,1.48,2.11,2,4.22,2,16.86s-.53,14.76-2,16.86c-1.69,2.53-4.22,4.22-8.85,4.22H327.76v16.44h27.83c7.8,0,15.07-2.21,20.24-7.38,8.75-8.75,7.8-18.34,7.8-30.14S384.57,198.87,375.82,190.12Z" transform="translate(-103.06 -182.11)"/><path class="a" d="M222,226.48a21.58,21.58,0,0,0,12.23-19.6c0-12.33-9-24.14-25.61-24.14H178.94v16.51h27.14v0h1.74a7.6,7.6,0,1,1,0,15.18H197.39v-10.7H178.94v54h18.44V229.86h6.22l13.28,27.93h21.4Z" transform="translate(-103.06 -182.11)"/></svg>