<svg width="14" height="12" viewBox="0 0 14 12" fill="none" xmlns="http://www.w3.org/2000/svg">
<path d="M0.875 11.1429V3.42857H13.125V11.1429C13.125 11.625 12.7148 12 12.25 12H1.75C1.25781 12 0.875 11.625 0.875 11.1429ZM5.25 5.46429V5.67857C5.25 5.86607 5.38672 6 5.57813 6H8.42188C8.58594 6 8.75 5.86607 8.75 5.67857V5.46429C8.75 5.30357 8.58594 5.14286 8.42188 5.14286H5.57813C5.38672 5.14286 5.25 5.30357 5.25 5.46429ZM13.125 0C13.5898 0 14 0.401786 14 0.857143V2.14286C14 2.38393 13.7813 2.57143 13.5625 2.57143H0.4375C0.191406 2.57143 0 2.38393 0 2.14286V0.857143C0 0.401786 0.382813 0 0.875 0H13.125Z" fill="#333333"/>
</svg>
