<svg width="15" height="17" viewBox="0 0 15 17" fill="none" xmlns="http://www.w3.org/2000/svg">
<path d="M1.5 5C1.91667 5 2.27083 5.14583 2.5625 5.4375C2.85417 5.72917 3 6.08333 3 6.5C3 6.77083 2.93229 7.02214 2.79688 7.25391C2.66146 7.48568 2.47917 7.66667 2.25 7.79688V11.6797C2.53125 11.5443 2.93229 11.3958 3.45312 11.2344C3.73958 11.1458 3.96745 11.069 4.13672 11.0039C4.30599 10.9388 4.48958 10.8581 4.6875 10.7617C4.88542 10.6654 5.03906 10.5625 5.14844 10.4531C5.25781 10.3438 5.36328 10.2109 5.46484 10.0547C5.56641 9.89844 5.63932 9.71745 5.68359 9.51172C5.72786 9.30599 5.75 9.06771 5.75 8.79688C5.52083 8.66667 5.33854 8.48568 5.20312 8.25391C5.06771 8.02214 5 7.77083 5 7.5C5 7.08333 5.14583 6.72917 5.4375 6.4375C5.72917 6.14583 6.08333 6 6.5 6C6.91667 6 7.27083 6.14583 7.5625 6.4375C7.85417 6.72917 8 7.08333 8 7.5C8 7.77083 7.93229 8.02214 7.79688 8.25391C7.66146 8.48568 7.47917 8.66667 7.25 8.79688C7.23958 10.2917 6.65104 11.3698 5.48438 12.0312C5.13021 12.2292 4.60156 12.4401 3.89844 12.6641C3.23177 12.8724 2.79036 13.0573 2.57422 13.2188C2.35807 13.3802 2.25 13.6406 2.25 14V14.2031C2.47917 14.3333 2.66146 14.5143 2.79688 14.7461C2.93229 14.9779 3 15.2292 3 15.5C3 15.9167 2.85417 16.2708 2.5625 16.5625C2.27083 16.8542 1.91667 17 1.5 17C1.08333 17 0.729167 16.8542 0.4375 16.5625C0.145833 16.2708 0 15.9167 0 15.5C0 15.2292 0.0677083 14.9779 0.203125 14.7461C0.338542 14.5143 0.520833 14.3333 0.75 14.2031V7.79688C0.520833 7.66667 0.338542 7.48568 0.203125 7.25391C0.0677083 7.02214 0 6.77083 0 6.5C0 6.08333 0.145833 5.72917 0.4375 5.4375C0.729167 5.14583 1.08333 5 1.5 5ZM1.5 14.75C1.29167 14.75 1.11458 14.8229 0.96875 14.9688C0.822917 15.1146 0.75 15.2917 0.75 15.5C0.75 15.7083 0.822917 15.8854 0.96875 16.0312C1.11458 16.1771 1.29167 16.25 1.5 16.25C1.70833 16.25 1.88542 16.1771 2.03125 16.0312C2.17708 15.8854 2.25 15.7083 2.25 15.5C2.25 15.2917 2.17708 15.1146 2.03125 14.9688C1.88542 14.8229 1.70833 14.75 1.5 14.75ZM15 13.7188C15 15 11.8438 16 8 16C6.50868 16 5.12888 15.85 3.99512 15.5947C3.99621 15.5633 4 15.5318 4 15.5C4 15.0535 3.88585 14.6275 3.66016 14.2412C3.58842 14.1185 3.50627 14.0045 3.41699 13.8975C3.42887 13.8923 3.44136 13.8862 3.4541 13.8809C3.63608 13.8047 3.881 13.7167 4.19629 13.6182L4.20215 13.6172C4.92632 13.3865 5.53059 13.1513 5.97266 12.9043L5.97754 12.9014C6.4176 12.6519 6.79126 12.3535 7.10156 12.0127C7.39998 12.024 7.69996 12.0312 8 12.0312C10.7188 12.0312 13.4688 11.5625 15 10.5V13.7188ZM15 8.71875C15 10 11.8438 11 8 11C7.92647 11 7.85324 10.9968 7.78027 10.9961C8.02107 10.4883 8.16968 9.92355 8.22363 9.30859C8.39279 9.14782 8.5398 8.96471 8.66016 8.75879C8.88585 8.3725 9 7.94646 9 7.5C9 7.33228 8.98328 7.16909 8.95312 7.01074C11.3453 6.91241 13.6478 6.43824 15 5.5V8.71875ZM4.13379 6.68359C4.04649 6.9407 4 7.2138 4 7.5C4 7.94646 4.11415 8.3725 4.33984 8.75879C4.44511 8.93889 4.57015 9.10223 4.71289 9.24805C4.70962 9.2665 4.70965 9.28507 4.70605 9.30176C4.68413 9.40346 4.65311 9.46802 4.62598 9.50977C4.55504 9.61888 4.49262 9.69488 4.44141 9.74609L4.43848 9.74902C4.43662 9.75067 4.43332 9.75293 4.42969 9.75586C4.42194 9.76209 4.41032 9.77068 4.39453 9.78125C4.36203 9.803 4.31512 9.83059 4.25 9.8623C4.07261 9.94867 3.91497 10.0174 3.77734 10.0703C3.65411 10.1177 3.48015 10.1766 3.25 10.249V8.28516C3.40837 8.1302 3.54586 7.95434 3.66016 7.75879C3.85954 7.41754 3.97164 7.04524 3.99512 6.65527C4.04114 6.66484 4.08733 6.67441 4.13379 6.68359ZM6.5 6.75C6.29167 6.75 6.11458 6.82292 5.96875 6.96875C5.82292 7.11458 5.75 7.29167 5.75 7.5C5.75 7.70833 5.82292 7.88542 5.96875 8.03125C6.11458 8.17708 6.29167 8.25 6.5 8.25C6.70833 8.25 6.88542 8.17708 7.03125 8.03125C7.17708 7.88542 7.25 7.70833 7.25 7.5C7.25 7.29167 7.17708 7.11458 7.03125 6.96875C6.88542 6.82292 6.70833 6.75 6.5 6.75ZM1.5 5.75C1.29167 5.75 1.11458 5.82292 0.96875 5.96875C0.822917 6.11458 0.75 6.29167 0.75 6.5C0.75 6.70833 0.822917 6.88542 0.96875 7.03125C1.11458 7.17708 1.29167 7.25 1.5 7.25C1.70833 7.25 1.88542 7.17708 2.03125 7.03125C2.17708 6.88542 2.25 6.70833 2.25 6.5C2.25 6.29167 2.17708 6.11458 2.03125 5.96875C1.88542 5.82292 1.70833 5.75 1.5 5.75ZM8 0C11.8438 0 15 1.03125 15 2.3125V3.71875C15 4.94453 12.1111 5.90966 8.49512 5.99121C8.42619 5.90121 8.35226 5.8132 8.26953 5.73047C7.7882 5.24914 7.17886 5 6.5 5C5.82114 5 5.2118 5.24914 4.73047 5.73047C4.72786 5.73307 4.72525 5.73567 4.72266 5.73828C4.40613 5.68431 4.10455 5.62133 3.81934 5.55273C3.69688 5.25096 3.51325 4.97419 3.26953 4.73047C2.7882 4.24914 2.17886 4 1.5 4C1.35219 4 1.20799 4.01366 1.06738 4.03711C1.024 3.93308 1 3.82725 1 3.71875V2.3125C1 1.03125 4.125 0 8 0Z" fill="#333333"/>
</svg>
