<svg width="41" height="41" viewBox="0 0 41 41" fill="none" xmlns="http://www.w3.org/2000/svg">
<g clip-path="url(#clip0_1461_19607)">
<path d="M4.17847 6.25H16.3679L21.3679 11.25H36.6785C38.2955 11.25 39.6785 12.633 39.6785 14.25V31.75C39.6785 33.435 38.3057 34.75 36.6785 34.75H4.17847C2.4833 34.75 1.17847 33.4452 1.17847 31.75V9.25C1.17847 7.62275 2.49344 6.25 4.17847 6.25Z" stroke="#333333" stroke-width="1.5"/>
<path d="M14.5237 23.3335C14.3967 23.2319 14.3967 23.0288 14.5237 22.9019L19.8303 17.5952C19.9573 17.4683 20.135 17.4683 20.262 17.5952L25.5686 22.9019C25.6956 23.0288 25.6956 23.2319 25.5686 23.3335L25.0862 23.8413C24.9592 23.9683 24.7561 23.9683 24.6545 23.8413L20.719 19.9058V28.564C20.719 28.7417 20.5667 28.8687 20.4143 28.8687H19.7034C19.5256 28.8687 19.3987 28.7417 19.3987 28.564V19.9058L15.4377 23.8413C15.3362 23.9683 15.1331 23.9683 15.0061 23.8413L14.5237 23.3335Z" fill="#333333"/>
</g>
<defs>
<clipPath id="clip0_1461_19607">
<rect width="40" height="40" fill="white" transform="translate(0.428467 0.5)"/>
</clipPath>
</defs>
</svg>
