<svg width="16" height="16" viewBox="0 0 16 16" fill="none" xmlns="http://www.w3.org/2000/svg">
<path d="M6.00065 8.66634C6.36884 8.66634 6.66732 8.36786 6.66732 7.99967C6.66732 7.63148 6.36884 7.33301 6.00065 7.33301C5.63246 7.33301 5.33398 7.63148 5.33398 7.99967C5.33398 8.36786 5.63246 8.66634 6.00065 8.66634Z" fill="#333333" stroke="#333333" stroke-linecap="round" stroke-linejoin="round"/>
<path d="M6.00065 4.00033C6.36884 4.00033 6.66732 3.70185 6.66732 3.33366C6.66732 2.96547 6.36884 2.66699 6.00065 2.66699C5.63246 2.66699 5.33398 2.96547 5.33398 3.33366C5.33398 3.70185 5.63246 4.00033 6.00065 4.00033Z" fill="#333333" stroke="#333333" stroke-linecap="round" stroke-linejoin="round"/>
<path d="M6.00065 13.3333C6.36884 13.3333 6.66732 13.0349 6.66732 12.6667C6.66732 12.2985 6.36884 12 6.00065 12C5.63246 12 5.33398 12.2985 5.33398 12.6667C5.33398 13.0349 5.63246 13.3333 6.00065 13.3333Z" fill="#333333" stroke="#333333" stroke-linecap="round" stroke-linejoin="round"/>
<path d="M10.0007 8.66634C10.3688 8.66634 10.6673 8.36786 10.6673 7.99967C10.6673 7.63148 10.3688 7.33301 10.0007 7.33301C9.63246 7.33301 9.33398 7.63148 9.33398 7.99967C9.33398 8.36786 9.63246 8.66634 10.0007 8.66634Z" fill="#333333" stroke="#333333" stroke-linecap="round" stroke-linejoin="round"/>
<path d="M10.0007 4.00033C10.3688 4.00033 10.6673 3.70185 10.6673 3.33366C10.6673 2.96547 10.3688 2.66699 10.0007 2.66699C9.63246 2.66699 9.33398 2.96547 9.33398 3.33366C9.33398 3.70185 9.63246 4.00033 10.0007 4.00033Z" fill="#333333" stroke="#333333" stroke-linecap="round" stroke-linejoin="round"/>
<path d="M10.0007 13.3333C10.3688 13.3333 10.6673 13.0349 10.6673 12.6667C10.6673 12.2985 10.3688 12 10.0007 12C9.63246 12 9.33398 12.2985 9.33398 12.6667C9.33398 13.0349 9.63246 13.3333 10.0007 13.3333Z" fill="#333333" stroke="#333333" stroke-linecap="round" stroke-linejoin="round"/>
</svg>
