<svg width="15" height="14" viewBox="0 0 15 14" xmlns="http://www.w3.org/2000/svg">
  <path
    d="M0 13.1124L1.85938 11.1983L3.69141 13.0303L2.70703 13.9874L0 13.1124ZM3.39062 6.54985L4.53906 5.59282L9.26953 10.3233L8.28516 11.4717C8.03906 11.7725 7.62891 11.8819 7.24609 11.7725L6.09766 11.417L4.70312 12.8116L2.05078 10.1592L3.44531 8.7647L3.08984 7.61626C3.0625 7.50688 3.0625 7.42485 3.0625 7.31548C3.0625 7.0147 3.19922 6.74126 3.39062 6.54985ZM14.4102 2.17485C14.9844 2.72173 15.0117 3.62407 14.4922 4.22563L9.84375 9.66704L5.19531 5.0186L10.6367 0.370166C11.2383 -0.149365 12.1406 -0.122021 12.6875 0.452197L14.4102 2.17485Z" />
</svg>