<?xml version="1.0" encoding="utf-8"?>
<!-- Generator: Adobe Illustrator 23.0.3, SVG Export Plug-In . SVG Version: 6.00 Build 0)  -->
<svg version="1.1" id="icon_layer" xmlns="http://www.w3.org/2000/svg" xmlns:xlink="http://www.w3.org/1999/xlink" x="0px" y="0px"
	 viewBox="0 0 10 13" style="enable-background:new 0 0 10 13;" xml:space="preserve">
<style type="text/css">
	.st0{fill-rule:evenodd;clip-rule:evenodd;}
</style>
<path id="file-x" class="st0" d="M6,0v3c0,0.552,0.448,1,1,1h3v8c0,0.552-0.448,1-1,1H1c-0.552,0-1-0.448-1-1V1c0-0.552,0.448-1,1-1
	H6z M6.142,8l1.705-1.705C7.949,6.193,8,6.068,8,5.92S7.949,5.642,7.847,5.528L7.472,5.153C7.358,5.051,7.227,5,7.08,5
	S6.807,5.051,6.705,5.153L5,6.858L3.295,5.153C3.193,5.051,3.068,5,2.92,5C2.773,5,2.642,5.051,2.528,5.153L2.153,5.528
	C2.051,5.642,2,5.773,2,5.92s0.051,0.273,0.153,0.375L3.858,8L2.153,9.705C2.051,9.807,2,9.932,2,10.08
	c0,0.148,0.051,0.278,0.153,0.392l0.375,0.375C2.642,10.949,2.773,11,2.92,11c0.148,0,0.273-0.051,0.375-0.153L5,9.142l1.705,1.705
	C6.807,10.949,6.932,11,7.08,11s0.278-0.051,0.392-0.153l0.375-0.375C7.949,10.358,8,10.227,8,10.08
	c0-0.148-0.051-0.273-0.153-0.375L6.142,8z M9.91,3H7V0.09c0.108,0.049,0.207,0.118,0.293,0.203l2.414,2.414
	C9.793,2.793,9.861,2.892,9.91,3z"/>
</svg>
