<svg xmlns="http://www.w3.org/2000/svg" viewBox="0 0 29 20"><title>translation-compare</title><path d="M28.47,6a1.82,1.82,0,0,1,.38.59,1.8,1.8,0,0,1,.16.69v9a.75.75,0,0,1-.75.75H17.75a.75.75,0,0,1-.75-.75V3.75A.75.75,0,0,1,17.75,3h7a1.8,1.8,0,0,1,.69.16,1.82,1.82,0,0,1,.59.38ZM28,16V8H24.75A.75.75,0,0,1,24,7.25V4H18V16ZM20,9.25A.24.24,0,0,1,20.25,9h5.5a.24.24,0,0,1,.25.25v.5a.24.24,0,0,1-.25.25h-5.5A.24.24,0,0,1,20,9.75ZM25.75,11a.24.24,0,0,1,.25.25v.5a.24.24,0,0,1-.25.25h-5.5a.24.24,0,0,1-.25-.25v-.5a.24.24,0,0,1,.25-.25Zm0,2a.24.24,0,0,1,.25.25v.5a.24.24,0,0,1-.25.25h-5.5a.24.24,0,0,1-.25-.25v-.5a.24.24,0,0,1,.25-.25ZM25,4.06V7h2.94a.85.85,0,0,0-.17-.32L25.32,4.23A.85.85,0,0,0,25,4.06Z"/><path d="M3,3.53a1.82,1.82,0,0,1,.59-.37A1.8,1.8,0,0,1,4.25,3h7a.75.75,0,0,1,.75.75v12.5a.75.75,0,0,1-.75.75H.75a.72.72,0,0,1-.53-.22A.72.72,0,0,1,0,16.25v-9a1.8,1.8,0,0,1,.16-.69A1.82,1.82,0,0,1,.53,6ZM11,16V4H5V7.25A.75.75,0,0,1,4.25,8H1v8ZM9,9.75a.24.24,0,0,1-.25.25H3.25A.24.24,0,0,1,3,9.75v-.5A.24.24,0,0,1,3.25,9h5.5A.24.24,0,0,1,9,9.25ZM8.75,11a.24.24,0,0,1,.25.25v.5a.24.24,0,0,1-.25.25H3.25A.24.24,0,0,1,3,11.75v-.5A.24.24,0,0,1,3.25,11Zm0,2a.24.24,0,0,1,.25.25v.5a.24.24,0,0,1-.25.25H3.25A.24.24,0,0,1,3,13.75v-.5A.24.24,0,0,1,3.25,13ZM3.68,4.23,1.23,6.68A.85.85,0,0,0,1.06,7H4V4.06A.85.85,0,0,0,3.68,4.23Z"/><rect x="14" width="1" height="20"/></svg>