<svg xmlns="http://www.w3.org/2000/svg" viewBox="0 0 22 20"><title>translation-add</title><path d="M21.47,6a1.82,1.82,0,0,1,.38.59,1.8,1.8,0,0,1,.16.69v9a.75.75,0,0,1-.75.75H10.75a.75.75,0,0,1-.75-.75V3.75A.75.75,0,0,1,10.75,3h7a1.8,1.8,0,0,1,.69.16,1.82,1.82,0,0,1,.59.38ZM21,16V8H17.75A.75.75,0,0,1,17,7.25V4H11V16ZM13,9.25A.24.24,0,0,1,13.25,9h5.5a.24.24,0,0,1,.25.25v.5a.24.24,0,0,1-.25.25h-5.5A.24.24,0,0,1,13,9.75ZM18.75,11a.24.24,0,0,1,.25.25v.5a.24.24,0,0,1-.25.25h-5.5a.24.24,0,0,1-.25-.25v-.5a.24.24,0,0,1,.25-.25Zm0,2a.24.24,0,0,1,.25.25v.5a.24.24,0,0,1-.25.25h-5.5a.24.24,0,0,1-.25-.25v-.5a.24.24,0,0,1,.25-.25ZM18,4.06V7h2.94a.85.85,0,0,0-.17-.32L18.32,4.23A.85.85,0,0,0,18,4.06Z"/><rect x="7" width="1" height="20"/><rect x="2" y="8" width="1" height="5"/><rect x="2" y="8" width="1" height="5" transform="translate(13 8) rotate(90)"/></svg>