<svg width="14" height="16" viewBox="0 0 14 16" fill="none" xmlns="http://www.w3.org/2000/svg">
<path d="M13.5 1C13.75 1 14 1.25 14 1.5V2.5C14 2.78125 13.75 3 13.5 3H0.5C0.21875 3 0 2.78125 0 2.5V1.5C0 1.25 0.21875 1 0.5 1H4.25L4.53125 0.4375C4.65625 0.1875 4.90625 0 5.1875 0H8.78125C9.0625 0 9.3125 0.1875 9.4375 0.4375L9.75 1H13.5ZM1.65625 14.5938L1 4H13L12.3125 14.5938C12.2812 15.4062 11.625 16 10.8125 16H3.15625C2.34375 16 1.6875 15.4062 1.65625 14.5938Z" fill="black" fill-opacity="0.87"/>
</svg>
