<?xml version="1.0" encoding="utf-8"?>
<!-- Generator: Adobe Illustrator 23.0.4, SVG Export Plug-In . SVG Version: 6.00 Build 0)  -->
<svg version="1.1" id="logo_layer" xmlns="http://www.w3.org/2000/svg" xmlns:xlink="http://www.w3.org/1999/xlink" x="0px" y="0px"
	 viewBox="0 0 85.714 24" style="enable-background:new 0 0 85.714 24;" xml:space="preserve">
<style type="text/css">
	.st0{fill:#C4C4C4;}
</style>
<path id="U" class="st0" d="M56.824,14.218V0.686h4.89v13.532c0,5.543-4.238,9.782-9.943,9.782s-9.943-4.239-9.943-9.782V0.686h4.89
	v13.532c0,3.098,2.282,5.38,5.053,5.38C54.543,19.598,56.824,17.315,56.824,14.218z"/>
<path id="R" class="st0" d="M36.227,15.174c0,0,4.096-1.832,4.096-6.828c0-4.263-3.277-7.661-7.864-7.661h-9.144l2.421,4.496h6.559
	c1.802,0,3.113,1.332,3.113,3.164c0,1.665-1.311,2.998-3.113,2.998h-5.451v4.496h4.633L35.9,24h5.243L36.227,15.174z"/>
<path id="D" class="st0" d="M73.77,0.686h-8.627v15.21h4.976V5.182h3.65c3.982,0,6.968,3.164,6.968,7.161s-3.15,7.161-6.967,7.161
	h-8.627V24h8.627c6.802,0,11.945-5.162,11.945-11.657S80.572,0.686,73.77,0.686z"/>
<path id="G" class="st0" d="M12.252,11.018v3.37h5.379v1.953c-1.298,1.65-3.317,2.713-5.579,2.713c-3.906,0-7.085-3.165-7.085-7.055
	s3.178-7.055,7.085-7.055c2.173,0,4.12,0.98,5.421,2.519h5.739C21.414,3.086,17.095,0,12.051,0C5.396,0,0,5.372,0,12
	s5.395,12,12.051,12c5.116,0,10.3-3.495,11.25-8.556c0,0,0.013-1.576,0.013-1.657v-2.77h-4.248L12.252,11.018z"/>
</svg>
