<svg xmlns="http://www.w3.org/2000/svg" width="33" height="33" viewBox="0 0 33 33" fill="none">
  <path d="M2.7251 3.10059L29.3918 29.7673" stroke="#52525B" stroke-linecap="round" stroke-linejoin="round"/>
  <path d="M13.9386 14.3139C13.6908 14.5616 13.3967 14.7582 13.073 14.8922C12.7493 15.0263 12.4023 15.0953 12.0519 15.0953C11.7016 15.0953 11.3546 15.0263 11.0309 14.8922C10.7072 14.7582 10.413 14.5616 10.1653 14.3139C9.91751 14.0661 9.72098 13.772 9.58689 13.4483C9.4528 13.1245 9.38379 12.7776 9.38379 12.4272C9.38379 12.0768 9.4528 11.7299 9.58689 11.4061C9.72098 11.0824 9.91751 10.7883 10.1653 10.5405" stroke="#52525B" stroke-linecap="round" stroke-linejoin="round"/>
  <path d="M18.0586 18.4338L8.05859 28.4338" stroke="#52525B" stroke-linecap="round" stroke-linejoin="round"/>
  <path d="M24.0586 16.4338L28.0586 20.4338" stroke="#52525B" stroke-linecap="round" stroke-linejoin="round"/>
  <path d="M4.84526 5.22046C4.5967 5.46651 4.39924 5.75928 4.26423 6.08192C4.12923 6.40456 4.05934 6.75071 4.05859 7.10046V25.7671C4.05859 26.4744 4.33955 27.1526 4.83964 27.6527C5.33974 28.1528 6.01802 28.4338 6.72526 28.4338H25.3919C26.1253 28.4338 26.7946 28.1405 27.2719 27.6471" stroke="#52525B" stroke-linecap="round" stroke-linejoin="round"/>
  <path d="M28.0586 20.4338V7.1005C28.0586 6.39326 27.7776 5.71498 27.2775 5.21489C26.7774 4.71479 26.0992 4.43384 25.3919 4.43384H12.0586" stroke="#52525B" stroke-linecap="round" stroke-linejoin="round"/>
</svg>